<?xml version="1.0" standalone="no"?>
<!DOCTYPE svg PUBLIC "-//W3C//DTD SVG 1.1//EN" "http://www.w3.org/Graphics/SVG/1.1/DTD/svg11.dtd" >
<svg xmlns="http://www.w3.org/2000/svg">
<metadata></metadata>
<defs>
<font id="deliciousroman" horiz-adv-x="2763" >
<font-face units-per-em="2048" ascent="1638" descent="-410" />
<missing-glyph horiz-adv-x="1842" />
<glyph horiz-adv-x="2048" />
<glyph horiz-adv-x="2048" />
<glyph unicode="&#xd;" horiz-adv-x="2048" />
<glyph unicode=" "  horiz-adv-x="1842" />
<glyph unicode="&#x09;" horiz-adv-x="1842" />
<glyph unicode="&#xa0;" horiz-adv-x="1842" />
<glyph unicode="!" horiz-adv-x="1620" d="M522 252q0 102 55.5 189t146 136.5t191.5 49.5q145 0 251 -99.5t106 -245.5q0 -151 -119 -263t-274 -112q-145 0 -251 99.5t-106 245.5zM639 3255q0 549 93 978l465 63q-102 -581 -102 -1188v-2112h-369q-5 93 -24 444t-25.5 484.5t-18 402t-15.5 484.5t-4 444z" />
<glyph unicode="&#x22;" horiz-adv-x="2124" d="M393 3963l81 387h300l87 -387l-135 -966h-204zM1242 3963l78 387h303l84 -387l-135 -966h-201z" />
<glyph unicode="#" horiz-adv-x="3414" d="M375 1308l60 405h492l117 936h-435l60 405h426l153 1209h369l-156 -1209h708l135 1092h369l-135 -1092h522l-36 -405h-543l-117 -936h462l-36 -405h-474l-159 -1254h-369l159 1254h-705l-141 -1137h-369l141 1137h-498zM1296 1713h702l117 936h-702z" />
<glyph unicode="$" horiz-adv-x="2733" d="M381 2949q0 446 256 713.5t701 294.5v339h279v-345q195 -23 396.5 -100.5t350.5 -193.5l-165 -333q-117 86 -274 148.5t-308 85.5v-1401q277 -175 368 -241q243 -175 361 -352q168 -250 168 -607q0 -201 -66 -377.5t-184.5 -308.5t-284 -221.5t-362.5 -124.5v-375h-279 v357q-224 4 -476 76.5t-451 187.5l141 369q192 -96 404 -167t382 -79v1452q-34 21 -100 64q-99 61 -148.5 93t-137.5 93t-135 101t-117.5 104.5t-109 118t-85 128.5t-69 148.5t-39 164t-16.5 188.5zM861 2991q0 -101 27.5 -187.5t61 -143.5t108 -123.5t122.5 -101 t149 -101.5q2 -1 3 -2t3 -2t3 -2v1236q-226 -35 -351.5 -189.5t-125.5 -383.5zM1617 339q202 68 312.5 238.5t110.5 388.5q0 95 -35.5 186t-98 167t-133.5 137t-156 116v-1233z" />
<glyph unicode="%" horiz-adv-x="4293" d="M282 3147q0 133 41.5 257.5t117.5 224.5t177 176t225.5 117t257.5 41q239 0 435 -123q259 -69 429 -69q108 0 218.5 19t190.5 46.5t144.5 55t97.5 46.5l33 19l312 -87l-1365 -3870h-405l1296 3588q-66 -34 -155.5 -59t-171 -35.5t-154 -16.5t-115.5 -6h-43 q3 -5 7.5 -14.5t16.5 -42t21 -68t16.5 -90t7.5 -109.5q0 -133 -41 -257.5t-117 -225.5t-176 -177t-224.5 -117.5t-257.5 -41.5q-166 0 -317.5 65t-261.5 175t-175 261.5t-65 317.5zM645 3147q0 -189 133.5 -322.5t322.5 -133.5t321 133.5t132 322.5t-132 321t-321 132 t-322.5 -132t-133.5 -321zM2364 726q0 133 41.5 257.5t117.5 224.5t177 176t225.5 117t257.5 41q221 0 409 -109.5t297.5 -297.5t109.5 -409q0 -133 -41 -257.5t-117 -225.5t-176 -177t-224.5 -117.5t-257.5 -41.5q-166 0 -317.5 65t-261.5 175t-175 261.5t-65 317.5z M2727 726q0 -189 133.5 -322.5t322.5 -133.5t321 133.5t132 322.5t-132 321t-321 132t-322.5 -132t-133.5 -321z" />
<glyph unicode="&#x26;" horiz-adv-x="3870" d="M258 1437q0 133 19.5 271t60.5 278t100.5 268.5t145 241t187.5 197t234 135t279 55.5q-91 38 -165.5 90.5t-133.5 120.5t-91.5 155.5t-32.5 185.5q0 153 62.5 288t166.5 232t237.5 168t278.5 105.5t287 34.5q111 0 222 -17.5t217 -54.5t200.5 -89t174 -125.5t137.5 -160 t90.5 -196t32.5 -230.5v-378h609v-357h-597v-2034q0 -57 4.5 -101.5t19.5 -91t40.5 -77t70 -50t105.5 -19.5q156 0 357 87l105 -288q-188 -94 -320 -134t-307 -40q-120 0 -214 38t-154 101.5t-99.5 153.5t-56 187.5t-16.5 209.5v2058h-597q-247 0 -435.5 -48.5 t-320.5 -143.5t-215.5 -241.5t-121.5 -334.5t-38 -432q0 -238 48.5 -498t143.5 -441q118 -228 231 -228q35 0 74 22.5t77 58t80 79t93 86.5t107 78.5t129.5 58t153.5 22.5q154 0 300 -66l-90 -333q-130 39 -192 39q-61 0 -114.5 -23.5t-96 -61t-83.5 -83t-86 -91t-94.5 -83 t-117.5 -61t-146 -23.5q-115 0 -218.5 34t-186 94.5t-154.5 144.5t-126.5 181.5t-98.5 208t-73.5 222.5t-49.5 227t-29 218.5t-9 199.5zM1326 3435q0 -97 42 -173.5t107 -122.5t153 -75.5t171.5 -40.5t171.5 -11h567v288q0 135 -37.5 252.5t-109 206.5t-184.5 140.5 t-254 51.5q-115 0 -225 -34t-200.5 -96.5t-146 -163t-55.5 -222.5z" />
<glyph unicode="'" horiz-adv-x="1275" d="M393 3963l81 387h300l87 -387l-135 -966h-204z" />
<glyph unicode="(" horiz-adv-x="2064" d="M288 2040q0 407 111.5 808.5t313.5 752t487.5 650.5t629.5 516l51 -348q-287 -188 -520.5 -459t-388 -583t-238 -658t-83.5 -691q0 -1551 1236 -2544l-45 -381q-391 295 -674.5 602.5t-483.5 666t-298 772.5t-98 896z" />
<glyph unicode=")" horiz-adv-x="2082" d="M189 -516q1242 991 1242 2544q0 345 -84 691t-239.5 658t-389 583t-520.5 459l48 348q346 -216 632 -517t487 -652t312 -752t111 -806q0 -482 -98 -896t-298 -772.5t-483.5 -666t-674.5 -602.5z" />
<glyph unicode="*" horiz-adv-x="2604" d="M216 3384v396l921 -333l-222 693h714l-210 -693l915 318v-381l-804 -258l651 -999h-429l-474 756l-468 -756h-399l603 999z" />
<glyph unicode="+" horiz-adv-x="2892" d="M276 1353v366h990v1065h357v-1065h993v-366h-993v-1065h-357v1065h-990z" />
<glyph unicode="," horiz-adv-x="1584" d="M177 -687q298 425 369 717q33 136 33 252q0 41 -3.5 78t-7.5 53l-4 16q20 12 52 29.5t109.5 46.5t129.5 29q51 0 110.5 -29t107.5 -70.5t89 -83t64 -70.5l22 -29q-10 -22 -30.5 -61.5t-93 -164t-156.5 -250.5t-222.5 -307t-289.5 -348z" />
<glyph unicode="-" horiz-adv-x="1854" d="M333 1383v369h1173v-369h-1173z" />
<glyph unicode="." horiz-adv-x="1584" d="M441 252q0 102 56.5 189t147.5 136.5t192 49.5q144 0 249 -99.5t105 -245.5q0 -151 -119 -263t-274 -112q-145 0 -251 99.5t-106 245.5z" />
<glyph unicode="/" horiz-adv-x="2187" d="M105 -909l1590 5559h387l-1590 -5559h-387z" />
<glyph unicode="0" d="M171 1506q0 164 21.5 324.5t67.5 319.5t114.5 299t168 260.5t221 207.5t280 136t339.5 49t339.5 -49t279.5 -136t220.5 -207.5t167 -260.5t114 -299t67.5 -319.5t21 -324.5t-21 -325t-67.5 -320t-114 -299.5t-167 -261t-220.5 -207.5t-279.5 -136.5t-339.5 -49.5 t-339.5 49.5t-280 136.5t-221 207.5t-168 261t-114.5 299.5t-67.5 320t-21.5 325zM615 1506q0 -108 10.5 -218.5t36.5 -231.5t65 -229t101 -207t139 -170t184 -113.5t232 -42.5t232 42.5t184 113.5t139 170t101 207t65 229t36.5 231.5t10.5 218.5t-10.5 218.5t-36.5 231 t-65 228t-101 206t-139 170t-184 113.5t-232 42t-232 -42t-184 -113.5t-139 -170t-101 -206t-65 -228t-36.5 -231t-10.5 -218.5z" />
<glyph unicode="1" d="M609 2574v294q250 0 582 87l222 57h423v-3012h-453v2574h-774z" />
<glyph unicode="2" d="M381 381q136 72 297.5 194t326.5 274.5t319.5 332.5t274.5 360t192 366.5t72 341.5q0 113 -45 202.5t-121.5 144.5t-172.5 83.5t-204 28.5q-392 0 -852 -351l-87 357q140 110 242.5 176t223 117.5t250.5 72.5t298 21q208 0 377.5 -50.5t296 -152t196 -265.5t69.5 -378 q0 -162 -47 -330.5t-131.5 -324.5t-179.5 -290.5t-212 -266.5q-124 -138 -216.5 -234t-219 -209t-248.5 -196h1365v-405h-1977z" />
<glyph unicode="3" d="M441 -675q203 0 438 60q179 40 331.5 100.5t292 154t237.5 211t155.5 278.5t57.5 351q0 576 -867 576q-180 0 -522 -36v357l273 36q385 209 774 516q270 213 270 456q0 104 -56.5 182t-144.5 116t-192 38q-153 0 -425 -112.5t-472 -229.5l-111 324q157 101 339 188 t393.5 149t377.5 62q156 0 293 -49t238.5 -137.5t160 -222.5t58.5 -296q0 -100 -29 -195t-72 -170t-117.5 -153.5t-138 -133t-162 -120.5t-162.5 -104.5t-165 -95.5q187 0 354 -59.5t293 -167t200 -268t74 -351.5q0 -206 -42.5 -391t-121.5 -335t-189.5 -278.5t-247 -225.5 t-293 -171.5t-329.5 -120.5t-354.5 -68.5t-369.5 -20.5h-27v357z" />
<glyph unicode="4" d="M189 399q101 278 232.5 561t272 537t311 522.5t334.5 502t356 490.5h504v-2613h393v-399h-405v-849h-435v849h-1536zM645 399h1107v2040q-733 -1076 -1107 -2040z" />
<glyph unicode="5" d="M411 -663q229 4 481 69t455 171q277 144 426.5 376t149.5 539q0 122 -37 220t-101 163.5t-153.5 109.5t-190.5 63.5t-217 19.5q-302 0 -708 -123l171 2067h1524v-369h-1098l-99 -1236q174 36 258 36q27 0 79.5 -3t79.5 -3q124 -6 242 -34t225.5 -76t197 -120 t155.5 -161.5t103 -206t37 -248.5q0 -472 -216.5 -820.5t-638.5 -550.5q-256 -120 -539 -182t-562 -58h-24v357z" />
<glyph unicode="6" d="M288 1572q0 237 47 461.5t131.5 420.5t207 378.5t270 338.5t324 298t364.5 258.5t396 217.5l165 -303q-118 -73 -202 -127.5t-186 -125t-176.5 -129.5t-160 -134.5t-150 -147t-133 -159.5t-122 -179.5t-104.5 -200.5t-92 -228q145 54 219 78t187 43.5t239 19.5 q295 0 526 -128.5t359.5 -361t128.5 -530.5q0 -156 -20 -304t-63.5 -290.5t-108 -266t-157 -228t-206 -179t-261 -116t-315.5 -41.5q-180 0 -334 56.5t-265 152t-200 229t-145.5 281t-94 314t-53 321.5t-15.5 311zM738 1443q0 -93 9.5 -194.5t33.5 -216.5t59.5 -221 t91.5 -204.5t125.5 -171t165.5 -116t208 -43.5q639 0 639 1077q0 341 -194 520t-538 179q-73 0 -142.5 -11t-145 -36.5t-126 -46t-138.5 -59.5q-48 -235 -48 -456z" />
<glyph unicode="7" d="M363 2616v396h2016v-396q0 -406 -115.5 -923t-303 -1016.5t-433.5 -966t-501 -790.5l-405 171q259 341 495.5 774.5t419 898t291 951.5t108.5 901h-1572z" />
<glyph unicode="8" d="M252 951q0 178 54.5 343.5t153 300.5t231.5 243.5t293 183.5q-118 70 -205 133.5t-169.5 146t-133.5 171t-82 203.5t-31 249q0 175 54 327t151 264t227.5 192.5t286.5 121t325 40.5q225 0 403 -58t303.5 -171.5t192.5 -288.5t67 -403q0 -148 -59.5 -288.5t-161.5 -252 t-225 -198.5t-262 -146q275 -143 378 -208q244 -153 358 -328q131 -203 131 -490q0 -211 -58 -391.5t-164.5 -315.5t-254 -231t-329.5 -144.5t-388 -48.5q-217 0 -416 80t-346.5 217.5t-235.5 332.5t-88 414zM714 1020q0 -116 31 -228t91 -208t141.5 -169t189.5 -115 t228 -42q147 0 275.5 64.5t214.5 170.5t135.5 242t49.5 279q0 92 -19.5 172t-50 140.5t-81 117t-100 96t-121.5 84.5t-129.5 75.5t-140 75.5t-138.5 79q-123 -64 -225 -147.5t-182 -187.5t-124.5 -232t-44.5 -267zM798 2901q0 -104 26.5 -193.5t70 -157t112 -128.5t140 -106 t167.5 -93q218 110 284 150q179 109 257 239q86 145 86 361q0 567 -582 567q-103 0 -193 -35t-156.5 -96t-114.5 -141.5t-72.5 -174.5t-24.5 -192z" />
<glyph unicode="9" d="M264 1671q0 155 19 302.5t61.5 290.5t105 267.5t153.5 230t203.5 180.5t259.5 117.5t317 42.5q180 0 335 -59.5t268 -161t203.5 -241t149 -293.5t97.5 -325.5t55.5 -330.5t16.5 -314q0 -238 -57 -470.5t-158.5 -436t-244.5 -395t-313 -353.5t-365 -305t-399.5 -255.5 t-418.5 -199.5l-129 351q126 64 227 119.5t212.5 122t201 129t183.5 138t170 153t152 169.5t137 190.5t117 214.5t100 243q-228 -82 -308 -103q-152 -38 -349 -38q-195 0 -393 87q-293 123 -451 366.5t-158 566.5zM720 1653q0 -193 81.5 -351t234 -251.5t347.5 -93.5 q155 0 326 43t295 119q48 235 48 453q0 93 -10 194t-33.5 215.5t-59 220t-91.5 203.5t-125.5 170t-165.5 115t-208 43q-117 0 -212.5 -38t-161 -100t-114.5 -152.5t-77 -183.5t-45.5 -205t-23 -205t-5.5 -196z" />
<glyph unicode=":" horiz-adv-x="1584" d="M441 252q0 102 56.5 189t147.5 136.5t192 49.5q144 0 249 -99.5t105 -245.5q0 -151 -119 -263t-274 -112q-145 0 -251 99.5t-106 245.5zM441 2139q0 102 56.5 189t147.5 136.5t192 49.5q144 0 249 -99.5t105 -245.5q0 -151 -119 -263t-274 -112q-145 0 -251 99.5 t-106 245.5z" />
<glyph unicode=";" horiz-adv-x="1584" d="M159 -687q298 425 369 717q30 124 30 252q0 41 -3 78t-6 53l-3 16q20 12 52 29.5t109.5 46.5t129.5 29q51 0 110.5 -29t107.5 -70.5t89 -83t64 -70.5l22 -29q-10 -22 -30.5 -61.5t-94 -164t-157.5 -250.5t-223 -307t-290 -348zM441 2127q0 155 120.5 268t275.5 113 q144 0 249 -99.5t105 -245.5q0 -155 -119 -268t-274 -113q-145 0 -251 99.5t-106 245.5z" />
<glyph unicode="&#x3c;" horiz-adv-x="1842" d="M204 1536l1134 1155l291 -234l-915 -921l927 -921l-288 -234z" />
<glyph unicode="=" horiz-adv-x="2949" d="M270 879v369h2346v-369h-2346zM270 1794v369h2346v-369h-2346z" />
<glyph unicode="&#x3e;" horiz-adv-x="1842" d="M204 615l288 -234l1149 1155l-1137 1155l-288 -234l915 -921z" />
<glyph unicode="?" horiz-adv-x="2199" d="M441 252q0 102 56.5 189t147.5 136.5t192 49.5q144 0 249 -99.5t105 -245.5q0 -151 -119 -263t-274 -112q-145 0 -251 99.5t-106 245.5zM633 996v312v28q0 92 0.5 139t3 129.5t8.5 131.5t17 121t28 125t41.5 116t58.5 121t77 115l504 678q207 281 207 483q0 173 -90 277 t-264 104q-268 0 -516 -54v351q288 78 552 78q177 0 319.5 -46.5t245.5 -138t159 -233.5t56 -326q0 -91 -23.5 -182t-68.5 -179.5t-93 -163t-115 -162.5l-492 -651q-137 -180 -188.5 -364t-51.5 -497v-312h-375z" />
<glyph unicode="@" horiz-adv-x="4866" d="M264 2181q0 292 82.5 580t229 538t355 466t452 369t530 240t580.5 87q288 0 555 -62.5t494 -179t413.5 -289t317.5 -386.5t203 -478.5t72 -557.5q0 -163 -47 -347.5t-129.5 -362.5t-204 -342t-262.5 -287.5t-313.5 -197.5t-348.5 -74q-81 0 -153.5 15t-136 47.5 t-109.5 80.5t-72.5 118t-26.5 156q0 24 15 99q-14 -12 -67 -57.5t-72.5 -62t-71 -58.5t-78 -60t-76.5 -52.5t-83 -50.5t-81.5 -39.5t-88 -34t-86 -18.5t-91.5 -8q-121 0 -224 47t-174 125.5t-122 181.5t-74.5 214t-23.5 224q0 154 16 309.5t54 323t95 316.5t146 284t200 232 t263 154.5t330 57.5q205 0 383.5 -91t291.5 -260l63 252h399l-423 -1776q-3 -11 -10.5 -39.5t-11 -42.5t-8.5 -37t-7 -42.5t-2 -39.5q0 -87 42 -127.5t126 -40.5q130 0 256 64.5t226.5 171.5t186 244t143 283t89.5 288.5t32 259.5q0 304 -86.5 563t-243.5 450t-373.5 325.5 t-481 202t-561.5 67.5q-254 0 -494 -75t-437.5 -207t-363 -316t-279 -398.5t-176 -458.5t-62.5 -492q0 -265 65 -516t182.5 -463.5t289 -390.5t378 -302.5t456 -193.5t516.5 -69q454 0 873.5 196.5t692.5 547.5l288 -156q-140 -207 -355.5 -383t-461.5 -295.5t-515.5 -187 t-521.5 -67.5q-237 0 -465.5 46.5t-432 132t-389 210t-339 278t-278 339t-210 389t-132 432t-46.5 465.5zM1764 1830q0 -49 5.5 -97.5t17 -102.5t34 -98.5t53 -81.5t76.5 -58t102 -21q50 0 104.5 10.5t116 34.5t109 45t117.5 60t105 59.5t107 64.5t91 56l252 1107 q-109 141 -271 217.5t-344 76.5q-91 0 -173.5 -39t-145 -107t-116.5 -157t-92 -192.5t-67 -209t-46.5 -210.5t-26 -194.5t-8.5 -162.5z" />
<glyph unicode="A" horiz-adv-x="3132" d="M75 0l1227 3870h528l1230 -3870h-504l-411 1248h-1155l-411 -1248h-504zM1107 1653h921l-462 1707z" />
<glyph unicode="B" horiz-adv-x="3084" d="M492 60v3810h951q382 0 609 -90q280 -113 425 -344t145 -541q0 -166 -75 -339t-210.5 -307t-296.5 -179q191 -11 344 -90t251.5 -207.5t150.5 -294t52 -353.5q0 -199 -50 -371.5t-141 -305t-217 -236t-280.5 -170t-329.5 -101t-365 -34.5q-385 0 -963 153zM984 405 q273 -78 459 -78q197 0 359.5 49t285 145.5t190.5 252t68 357.5q0 129 -25.5 232.5t-69.5 176.5t-112.5 126.5t-143.5 86t-175 51.5t-194 25.5t-213 6.5h-429v-1431zM984 2235h453q203 0 361 78.5t249.5 231t91.5 356.5q0 132 -35 233.5t-96.5 168t-151.5 109t-192.5 60 t-226.5 17.5h-453v-1254z" />
<glyph unicode="C" horiz-adv-x="3051" d="M339 1935q0 197 27 396.5t85.5 400t144 381t209.5 336.5t274 270t346 179t417 65q257 0 527 -68t469 -196l-177 -321q-362 198 -819 198q-152 0 -286.5 -62t-235 -166.5t-184.5 -244.5t-140 -293.5t-94.5 -315.5t-56 -308.5t-17.5 -274.5q0 -147 13.5 -294t47.5 -308 t85.5 -303.5t133.5 -272.5t185.5 -223.5t247.5 -148.5t313 -55q216 0 446 66.5t391 185.5l210 -306q-200 -161 -498 -253t-573 -92q-235 0 -436.5 63t-351.5 173t-270.5 265t-200.5 332t-133 380.5t-76 404.5t-23 410z" />
<glyph unicode="D" horiz-adv-x="3360" d="M492 0v3870h1119q231 0 426.5 -59t338.5 -162t255.5 -250t185.5 -314t120.5 -364t67 -390.5t19.5 -401.5t-24 -405t-77.5 -390.5t-134 -360.5t-200 -311t-268.5 -245.5t-346 -159t-426 -57.5h-1056zM978 393h570q171 0 312.5 51t241 136.5t176 208t122.5 254.5t75.5 288 t40 296t10.5 290q0 114 -5 220.5t-19.5 231t-37 234.5t-61 224.5t-88.5 208t-121.5 177t-158.5 141t-202 90.5t-249 33h-606v-3084z" />
<glyph unicode="E" horiz-adv-x="2787" d="M492 0v3870h1989v-411h-1497v-1230h1149v-423h-1149v-1383h1560v-423h-2052z" />
<glyph unicode="F" horiz-adv-x="2529" d="M492 0v3870h1818v-405h-1326v-1236h1050v-423h-1050v-1806h-492z" />
<glyph unicode="G" horiz-adv-x="3219" d="M339 1935q0 197 27 396.5t85.5 400t144 381t209.5 336.5t274 270t346 179t417 65q288 0 503.5 -60.5t498.5 -203.5l-189 -327q-343 210 -813 210q-147 0 -278.5 -58.5t-232.5 -159t-185 -235.5t-142 -287t-98.5 -315t-59 -318t-18.5 -298q0 -147 13.5 -293t46.5 -308 t84.5 -304.5t133 -274t185 -225.5t248 -150t315.5 -56q135 0 285 22.5t258 64.5v1266h453v-1584q-196 -81 -475 -121.5t-533 -40.5q-236 0 -439 62.5t-354 171.5t-272.5 263t-202.5 330.5t-134.5 380t-77 406t-23.5 414.5z" />
<glyph unicode="H" horiz-adv-x="3366" d="M492 0v3870h492v-1641h1401v1641h489v-3870h-489v1812h-1401v-1812h-492z" />
<glyph unicode="I" horiz-adv-x="1461" d="M492 0v3870h480v-3870h-480z" />
<glyph unicode="J" horiz-adv-x="1503" d="M36 -669q83 28 151.5 60t135 79t111.5 102.5t72.5 130.5t27.5 162v4005h480v-4041q0 -144 -51 -267t-133.5 -210.5t-199.5 -159t-234.5 -116t-254.5 -78.5z" />
<glyph unicode="K" horiz-adv-x="2979" d="M492 0v3870h492v-1770l1350 1770h522l-1485 -1989l1560 -1734v-147h-492l-1455 1617v-1617h-492z" />
<glyph unicode="L" horiz-adv-x="2346" d="M492 0v3870h465v-3465h1335v-405h-1800z" />
<glyph unicode="M" horiz-adv-x="4557" d="M492 0v3870h651l1137 -3267l1137 3267h651v-3870h-492v2631q0 93 7.5 226.5t14.5 220.5l8 87l-1113 -3165h-429l-1113 3171q33 -318 33 -528v-2643h-492z" />
<glyph unicode="N" horiz-adv-x="3402" d="M492 0v3870h651l1308 -2961q-30 295 -30 540v2421h492v-3870h-504l-1458 3159q33 -313 33 -528v-2631h-492z" />
<glyph unicode="O" horiz-adv-x="3366" d="M339 1935q0 181 21 369.5t69.5 389t120.5 382.5t181.5 345.5t244 282.5t316.5 189t391 70t391.5 -70t317 -189t244.5 -282.5t182 -345.5t121 -382.5t70 -389t21 -369.5t-21 -369.5t-70 -389t-121 -382.5t-182 -345.5t-244.5 -282.5t-317 -189t-391.5 -70t-391 70 t-316.5 189t-244 282.5t-181.5 345.5t-120.5 382.5t-69.5 389t-21 369.5zM828 1935q0 -87 7.5 -187t24.5 -218.5t42.5 -237t64 -239t86.5 -228.5t113.5 -202.5t141 -163t172 -108t203.5 -39.5t203.5 39.5t172 108t141 163t113.5 202.5t86.5 228.5t64 239t42.5 237 t24.5 218.5t7.5 187t-7.5 187t-24.5 218.5t-42.5 237t-64 239t-86.5 228.5t-113.5 202.5t-141 163t-172 108t-203.5 39.5t-203.5 -39.5t-172 -108t-141 -163t-113.5 -202.5t-86.5 -228.5t-64 -239t-42.5 -237t-24.5 -218.5t-7.5 -187z" />
<glyph unicode="P" horiz-adv-x="3003" d="M492 0v3870h834q169 0 324 -21t300 -66t268 -112.5t225 -164.5t173 -217t110.5 -275t39.5 -335q0 -280 -89 -519t-249.5 -410.5t-396.5 -269t-519 -97.5q-130 0 -276 32.5t-252 90.5v-1506h-492zM984 1911q123 -52 260 -90.5t238 -38.5q147 0 275 49t222 134.5t161 199.5 t100.5 246.5t33.5 273.5q0 163 -50 296t-137 224t-207.5 153t-259 90.5t-294.5 28.5h-342v-1566z" />
<glyph unicode="Q" horiz-adv-x="3366" d="M339 1935q0 181 21 369.5t69.5 389t120.5 382.5t181.5 345.5t244 282.5t316.5 189t391 70t391.5 -70t317 -189t244.5 -282.5t182 -345.5t121 -382.5t70 -389t21 -369.5q0 -156 -15.5 -318t-51.5 -335.5t-88.5 -336t-132 -317t-177 -280.5t-227.5 -225t-280 -153 q79 -84 164 -153.5t184.5 -129.5t212.5 -94t225 -34q122 0 222 24l-129 -468q-96 -12 -147 -12q-96 0 -189 20t-170 51t-157.5 81t-141.5 98t-132.5 113.5t-121 116.5t-116.5 119t-109 109l-111 102q-188 23 -350.5 106.5t-283 206.5t-218.5 284t-162.5 336t-107.5 366.5 t-62 370.5t-19 352zM828 1935q0 -87 7.5 -187t24.5 -218.5t42.5 -237t64 -239t86.5 -228.5t113.5 -202.5t141 -163t172 -108t203.5 -39.5t203.5 39.5t172 108t141 163t113.5 202.5t86.5 228.5t64 239t42.5 237t24.5 218.5t7.5 187t-7.5 187t-24.5 218.5t-42.5 237t-64 239 t-86.5 228.5t-113.5 202.5t-141 163t-172 108t-203.5 39.5t-203.5 -39.5t-172 -108t-141 -163t-113.5 -202.5t-86.5 -228.5t-64 -239t-42.5 -237t-24.5 -218.5t-7.5 -187z" />
<glyph unicode="R" horiz-adv-x="3102" d="M492 0v3870h834q169 0 324 -21t300 -66t268 -112.5t225 -164.5t173 -217t110.5 -275t39.5 -335q0 -183 -39 -353.5t-118.5 -320t-193 -269t-269.5 -203.5t-340 -120l1143 -1266v-147h-480l-1272 1413q-90 29 -213 93v-1506h-492zM984 1911q135 -63 238 -96t215 -33 q194 0 353 69.5t264.5 191t162.5 286.5t57 356q0 163 -50 296t-137 224t-207.5 153t-259 90.5t-294.5 28.5h-342v-1566z" />
<glyph unicode="S" horiz-adv-x="2664" d="M276 2949q0 242 78.5 435t220.5 319.5t340 193t438 66.5q264 0 520 -123.5t389 -332.5l-276 -231q-109 136 -282 215t-351 79q-125 0 -233.5 -36.5t-189.5 -104.5t-127.5 -172.5t-46.5 -232.5q0 -88 24 -169.5t51.5 -141.5t96.5 -131.5t109 -110t143.5 -107.5t144.5 -94 t164 -97q128 -76 194 -116.5t181 -121t178.5 -142t145.5 -158.5t124 -191.5t72.5 -220.5t30.5 -266q0 -238 -91.5 -437.5t-247.5 -332.5t-363.5 -206.5t-440.5 -73.5q-228 0 -482 102.5t-439 260.5l207 351q151 -125 354.5 -223t365.5 -98q191 0 342.5 85.5t236 237.5 t84.5 343q0 76 -22 147.5t-52.5 128t-92.5 119t-110 104.5t-138 102.5t-144.5 94t-159.5 96.5q-101 60 -153 92t-146.5 94t-147.5 104t-131.5 110t-123 125.5t-98 137t-81 157t-46.5 173.5t-19 198z" />
<glyph unicode="T" horiz-adv-x="2487" d="M60 3441v429h2367v-429h-945v-3441h-480v3441h-942z" />
<glyph unicode="U" horiz-adv-x="3426" d="M486 1506v2364h492v-2370q0 -118 7 -223.5t27.5 -229t53.5 -225t90 -199t131.5 -164t183.5 -107t242 -40.5q106 0 196.5 25t159 67.5t125 105.5t95.5 133.5t68.5 157.5t47 171t28.5 180.5t14.5 179t3.5 174.5v2364h492v-2388q0 -177 -19.5 -340.5t-63.5 -323 t-110.5 -294.5t-166 -250t-223.5 -195.5t-289 -126t-358 -45.5q-192 0 -356 45.5t-288 127t-223 198t-165.5 253.5t-111 298.5t-64 328.5t-19.5 348z" />
<glyph unicode="V" horiz-adv-x="3132" d="M36 3870h534l1008 -3279l1014 3279h510l-1266 -3870h-540z" />
<glyph unicode="W" horiz-adv-x="4347" d="M60 3870h525l594 -2739q21 -96 34 -197t15 -154l2 -54l705 3144h492l705 -3144q3 189 51 405l621 2739h498l-912 -3870h-522l-687 3126l-687 -3126h-522z" />
<glyph unicode="X" horiz-adv-x="3021" d="M60 0l1149 1986l-1116 1884h534l855 -1419l822 1419h504l-1062 -1860l1203 -2010h-564l-909 1536l-879 -1536h-537z" />
<glyph unicode="Y" horiz-adv-x="2892" d="M81 3870h522l858 -1929l867 1929h492l-1131 -2451v-1419h-486v1419z" />
<glyph unicode="Z" horiz-adv-x="2811" d="M222 0v417q855 1690 1671 3030h-1536v423h2106v-423q-895 -1469 -1701 -3018h1869v-429h-2409z" />
<glyph unicode="[" horiz-adv-x="1521" d="M171 -957v5454h954v-357h-573v-4743h573v-354h-954z" />
<glyph unicode="\" horiz-adv-x="2058" d="M75 4650h381q400 -1399 698.5 -2443t440 -1538.5t232.5 -812t114 -398t44 -153.5t61 -214h-381z" />
<glyph unicode="]" horiz-adv-x="1527" d="M405 -603h573v4743h-573v357h954v-5454h-954v354z" />
<glyph unicode="^" horiz-adv-x="3831" d="M435 1965q308 541 634 1137.5t499 921.5l172 326h342q1215 -2238 1302 -2385h-429q-295 541 -556 1013t-375 673l-113 201q-382 -698 -1044 -1887h-432z" />
<glyph unicode="_" d="M0 -462h2766v-366h-2766v366z" />
<glyph unicode="`" horiz-adv-x="2076" d="M276 4233l381 387q320 -442 948 -897l-198 -276q-724 387 -1131 786z" />
<glyph unicode="a" horiz-adv-x="2862" d="M258 738q0 114 53.5 266t123.5 280l1446 615v387q0 213 -129.5 324t-344.5 111q-143 0 -304.5 -66.5t-293 -164t-230.5 -210.5l-174 288q185 231 473 382.5t571 151.5q201 0 363.5 -49.5t282.5 -148.5t185.5 -256t65.5 -362v-1875q0 -86 54 -134.5t144 -48.5q30 0 66 9.5 t57 26.5l117 -234q-79 -48 -176 -79.5t-181 -31.5q-245 0 -392.5 148.5t-147.5 394.5q-38 -132 -125 -239t-202.5 -175t-247.5 -104.5t-268 -36.5q-186 0 -335 61.5t-247.5 172t-151 263t-52.5 334.5zM720 756q0 -129 47 -236.5t143.5 -175.5t226.5 -68q113 0 217 46.5 t184 125t146 180t108.5 213.5t65.5 224t23 213v252l-1083 -456q-78 -173 -78 -318z" />
<glyph unicode="b" horiz-adv-x="3090" d="M504 276v3987h468v-1479q130 145 339 231.5t408 86.5q156 0 295 -45.5t245.5 -125t195.5 -189t150 -236t103.5 -267.5t62 -282t19.5 -280q0 -192 -18 -369.5t-62 -357.5t-111 -332t-170.5 -285t-235.5 -226t-312 -146.5t-393 -53.5q-236 0 -508 106.5t-476 262.5z M972 534q102 -115 274 -183.5t332 -68.5q126 0 232 50t180 132t131.5 196t92.5 233.5t57 252.5t30.5 245t8.5 220q0 100 -7 196.5t-26 209t-49.5 209.5t-82 189t-118 157t-162.5 104t-212 39q-179 0 -368 -96.5t-313 -239.5v-1845z" />
<glyph unicode="c" horiz-adv-x="2529" d="M300 1476q0 157 22 316.5t69 320.5t116 305.5t168.5 270t219.5 217t277 144t334 52.5q206 0 423 -83t363 -223l-210 -276q-113 94 -268.5 153.5t-301.5 59.5q-114 0 -214.5 -43.5t-174.5 -116.5t-135 -172.5t-101 -208.5t-67.5 -226.5t-39.5 -224.5t-12 -205 q0 -106 11.5 -219t39 -237.5t68 -238.5t104 -218t141.5 -180.5t185 -121.5t231 -45q138 0 326 83t349 187l156 -288q-175 -149 -415 -250t-452 -101q-177 0 -334 48.5t-278 133.5t-221 203t-169.5 256.5t-117.5 294t-70 314t-22 319.5z" />
<glyph unicode="d" horiz-adv-x="3144" d="M306 1332q0 198 18 379t61.5 361t110.5 331t169.5 282.5t233.5 222t308.5 142.5t388.5 52q261 0 591 -90v1251h468v-3699q0 -37 0.5 -58t3.5 -61.5t9 -66.5t18 -59t29 -53t44 -36t61 -20l-129 -303q-117 5 -194.5 27.5t-144.5 89.5q-66 70 -103.5 193t-37.5 233 q-34 -131 -119.5 -237t-200.5 -171.5t-245.5 -100t-262.5 -34.5q-156 0 -295.5 45.5t-246.5 125t-196.5 189t-151.5 236t-104.5 267.5t-62.5 282t-20 280zM786 1401q0 -89 9.5 -186.5t32 -208.5t56 -213.5t87 -197.5t119 -165t156.5 -112t197 -42q121 0 229.5 52.5 t188 140.5t143 200.5t103 237t60 244t20.5 226.5v1239q-117 51 -269 81t-283 30q-122 0 -226.5 -26.5t-183.5 -72.5t-143.5 -115t-109.5 -146t-79 -173t-54 -188.5t-32 -201.5t-16.5 -203t-4.5 -200z" />
<glyph unicode="e" horiz-adv-x="2892" d="M300 1584q0 185 39.5 369t113 352.5t185.5 314t250.5 253t316 168.5t373.5 61q177 0 338 -64t283 -174t214.5 -255t145 -309.5t63.5 -334.5q3 -53 7.5 -156t7.5 -156h-1857v-117q0 -97 11 -205.5t37 -232t64 -239t97.5 -222.5t133 -186.5t174 -127t215.5 -47.5 q83 0 201.5 39.5t240.5 101.5t224 122t186 118l150 -294q-215 -185 -509.5 -320.5t-543.5 -135.5q-183 0 -340.5 55.5t-274.5 150.5t-211 227.5t-155.5 281t-102.5 315.5t-59 327t-18 320zM837 2004h1308q0 104 -25.5 208t-77.5 197.5t-123.5 166t-171 115t-211.5 42.5 t-213.5 -43.5t-178.5 -115t-139.5 -167.5t-103.5 -197t-64 -206z" />
<glyph unicode="f" horiz-adv-x="1755" d="M153 2709v303h405v477q0 731 1053 855l84 -363q-8 0 -29.5 -2t-64.5 -9.5t-90.5 -19t-104.5 -33.5t-109.5 -51t-102.5 -73t-86.5 -97t-59 -126.5t-22.5 -158.5v-399h597v-357h-597v-2655h-468v2655z" />
<glyph unicode="g" horiz-adv-x="2793" d="M246 -510q0 65 11.5 125t28.5 109t49 97t61 84t76.5 75.5t83.5 66.5t94 62.5t97 57t102 55.5q-109 12 -201.5 63t-149.5 136.5t-57 187.5q0 233 243 389q98 63 307 149h1l2 1l1 1h1q-194 70 -342 210.5t-228.5 328t-80.5 394.5q0 225 77 415.5t212.5 323t327 207 t415.5 74.5q138 0 243 -19t204 -71h831v-369h-438q67 -114 104 -276t37 -303q0 -167 -57 -321t-157.5 -274.5t-237 -211t-295.5 -138.5q-9 -3 -61.5 -18.5t-79.5 -24t-85 -28t-94 -34t-90.5 -39t-88.5 -46t-74 -50.5t-63 -58t-38.5 -63.5t-15.5 -70.5q0 -42 34 -76t85 -55.5 t126 -37.5t142 -24.5t147.5 -13t128.5 -5.5t99 -1h210q144 0 272 -42.5t226 -120.5t155.5 -198.5t57.5 -265.5q0 -148 -41.5 -282.5t-115 -241t-174.5 -197t-220 -155.5t-250.5 -111t-267 -68t-269.5 -22q-103 0 -202 10.5t-202 35t-192 62t-168 95t-135 130.5t-88.5 172 t-32.5 215zM699 -417q0 -100 33 -181.5t88.5 -135t132 -89.5t160.5 -52t177 -16q113 0 233 29.5t232 89t200.5 139.5t142 190.5t53.5 232.5q0 68 -20 122.5t-52.5 91.5t-81.5 64t-98 42t-112.5 23.5t-114 11t-112.5 2.5h-363q-53 -29 -86 -48.5t-84.5 -51.5t-85.5 -59 t-75.5 -63t-68 -72.5t-51 -79t-36 -90.5t-11.5 -100zM792 2100q0 -96 23.5 -192.5t71.5 -184.5t114 -156t157 -108t195 -40q129 0 237 61.5t176.5 160t106.5 218.5t38 241t-38 241t-106.5 219.5t-176.5 161.5t-237 62t-237.5 -62t-177.5 -161t-107.5 -219.5t-38.5 -241.5z " />
<glyph unicode="h" horiz-adv-x="3186" d="M504 0v4263h468v-1473q169 119 455.5 215.5t519.5 96.5q134 0 242.5 -21.5t186 -59t135 -96t93 -124t56.5 -152t29 -172t8 -191.5v-2286h-468v2286q0 87 -8 149.5t-30.5 119.5t-62.5 91.5t-104.5 54.5t-154.5 20q-235 0 -501 -101t-396 -211v-2409h-468z" />
<glyph unicode="i" horiz-adv-x="1461" d="M369 3852q0 91 51 167.5t131 118t169 41.5q136 0 236 -90.5t100 -224.5q0 -138 -105.5 -231t-242.5 -93t-238 89t-101 223zM504 0v3012h453v-3012h-453z" />
<glyph unicode="j" horiz-adv-x="1461" d="M6 -855q73 28 140 63.5t133.5 86t115 108t79 131.5t30.5 154v3324h453v-3369q0 -103 -25 -194t-67.5 -162.5t-106 -134.5t-134 -110.5t-159 -89.5t-172 -72.5t-182.5 -58.5zM369 3852q0 91 51 167.5t131 118t169 41.5q136 0 236 -90.5t100 -224.5q0 -138 -105.5 -231 t-242.5 -93t-238 89t-101 223z" />
<glyph unicode="k" horiz-adv-x="2892" d="M504 0v4263h468v-2511l1086 1260h552l-1104 -1299l1362 -1602v-111h-489l-1407 1677v-1677h-468z" />
<glyph unicode="l" horiz-adv-x="1449" d="M468 1209v3054h453v-3054q0 -606 186 -1209h-486q-83 226 -118 556t-35 653z" />
<glyph unicode="m" horiz-adv-x="4737" d="M504 0v3012h468v-222q438 312 828 312q91 0 167.5 -7t161.5 -27.5t153 -54.5t129.5 -92.5t102.5 -136.5q161 127 439 222.5t482 95.5q413 0 611.5 -200.5t198.5 -615.5v-2286h-465v2286q0 108 -19 185.5t-63 135t-120.5 86t-187.5 28.5q-204 0 -416.5 -74.5 t-369.5 -201.5q6 -54 6 -159v-2286h-465v2286q0 108 -18.5 185t-62 135t-119.5 86.5t-187 28.5q-203 0 -406 -86t-380 -226v-2409h-468z" />
<glyph unicode="n" horiz-adv-x="3186" d="M504 0v3012h468v-222q169 119 455.5 215.5t519.5 96.5q134 0 242.5 -21.5t186 -59t135 -96t93 -124t56.5 -152t29 -172t8 -191.5v-2286h-468v2286q0 87 -8 149.5t-30.5 119.5t-62.5 91.5t-104.5 54.5t-154.5 20q-121 0 -262 -31t-262 -79t-220 -101.5t-153 -100.5v-2409 h-468z" />
<glyph unicode="o" horiz-adv-x="2997" d="M300 1500q0 154 22.5 311.5t71 315.5t118 301t169 266.5t219 214t273.5 142t327 51.5t327 -51.5t273 -142t218.5 -214t168.5 -266.5t117 -301t70.5 -315.5t22.5 -311.5q0 -134 -18 -271.5t-53 -276t-91 -268t-128 -246.5t-167.5 -214t-205.5 -167.5t-247 -110t-287 -39.5 t-287 39.5t-247.5 110t-206 167.5t-168 214t-128.5 246.5t-91.5 268t-53.5 276t-18 271.5zM768 1500q0 -101 13.5 -213t42.5 -231.5t71 -231.5t103 -212t133.5 -174.5t167.5 -118t201 -43.5t201 43.5t167 118t132.5 174.5t102 212t70.5 231.5t42.5 231.5t13.5 213 q0 119 -19 252t-56 272.5t-98.5 265.5t-139.5 225.5t-185.5 158.5t-230.5 59q-106 0 -201 -44t-167.5 -119.5t-133.5 -176.5t-103 -213.5t-71 -233t-42.5 -233t-13.5 -213.5z" />
<glyph unicode="p" horiz-adv-x="3168" d="M516 -1080v4092h468v-228q155 139 380 228.5t430 89.5q156 0 295 -45.5t245.5 -125t194.5 -189t149 -236t103 -267.5t61.5 -282t19.5 -280q0 -164 -13 -323.5t-47.5 -339t-87.5 -335t-140 -300t-199 -247t-270 -164t-347 -61.5q-265 0 -467.5 120.5t-306.5 353.5v-1461 h-468zM984 1494q0 -110 8.5 -217.5t31 -230.5t58 -230.5t94 -208.5t133.5 -173t181.5 -115t234.5 -43q95 0 176.5 32.5t142.5 87t112 133t85.5 164.5t61 187.5t41.5 196t25 196t13 181t3 157.5q0 100 -7 197.5t-26.5 212t-50.5 213t-82.5 192.5t-118.5 160.5t-163 106.5 t-212 40q-182 0 -386.5 -104.5t-354.5 -249.5v-885z" />
<glyph unicode="q" horiz-adv-x="3168" d="M306 1443q0 160 21 322.5t68 326.5t115 311.5t167.5 276t220.5 222t280 147t340 53.5q271 0 541.5 -49t601.5 -140v-3993h-468v1461q-108 -233 -310.5 -353.5t-463.5 -120.5q-171 0 -320 49.5t-260.5 135t-202 204t-151.5 254t-102 288.5t-59 303t-18 302zM792 1611 q0 -82 2.5 -159t11 -181t22.5 -196t39 -194.5t58.5 -186.5t83.5 -162.5t111 -132t143.5 -85.5t179.5 -32q147 0 297 87q105 64 186 165.5t130.5 214t81 246.5t43.5 254t12 245v1128q-122 49 -275 74t-295 25q-173 0 -315 -67t-236 -176.5t-158.5 -255.5t-93 -299.5 t-28.5 -311.5z" />
<glyph unicode="r" horiz-adv-x="1959" d="M504 0v3012h474v-240q13 13 49 50.5t55 56.5t59 53.5t71 54t79.5 44.5t96 38.5t110.5 23t131 9.5q73 0 148 -22.5t113 -45.5l39 -22l-165 -420q-4 3 -11.5 8.5t-34.5 19.5t-56.5 24.5t-76.5 19.5t-97 9q-31 0 -62.5 -6t-58.5 -15t-59 -26t-54.5 -30.5t-54 -38.5 t-50 -39.5t-49.5 -44.5t-44.5 -43t-44 -44t-39.5 -40v-2346h-468z" />
<glyph unicode="s" horiz-adv-x="2580" d="M288 2304q0 164 59 299t158 226t231.5 154t276 91t295.5 28q272 0 524 -107t403 -310l-243 -246q-131 131 -323 215.5t-373 84.5q-78 0 -154 -14.5t-147 -47.5t-125.5 -79.5t-87 -116.5t-32.5 -153q0 -67 28 -127.5t59.5 -99.5t100.5 -86t103 -65.5t115 -59.5 q11 -6 17 -9l567 -276q552 -269 552 -825q0 -177 -59 -324t-159.5 -247t-237 -169.5t-288.5 -101t-318 -31.5q-224 0 -463.5 100t-415.5 257l171 333q165 -127 369 -227t363 -100q89 0 172 15.5t159.5 51.5t133 88.5t90 131t33.5 175.5q0 71 -21.5 134t-55 109.5t-85.5 90 t-102.5 74t-116.5 63.5l-639 321q-260 131 -397 319t-137 461z" />
<glyph unicode="t" horiz-adv-x="1878" d="M153 2709v303h432v534h429v-534h609v-357h-597v-2034q0 -187 62.5 -263t177.5 -76q68 0 157 22t145 44l55 21l102 -288q-11 -7 -31 -19t-85.5 -42t-134 -52.5t-171 -41.5t-202.5 -19q-74 0 -140.5 15.5t-128 48.5t-111 88t-86.5 129.5t-57 178.5t-20 230v2058z" />
<glyph unicode="u" horiz-adv-x="3186" d="M492 726v2286h465v-2286q0 -62 3 -108t12 -94t24.5 -81.5t41.5 -64.5t62 -49.5t86.5 -29.5t115.5 -11q203 0 482.5 107t432.5 244v2373h468v-2550q0 -29 0.5 -45t2.5 -44.5t7 -45.5t14.5 -39.5t22.5 -35.5t34 -23.5t48 -12.5l-153 -309q-167 0 -288.5 94.5t-143.5 256.5 q-187 -160 -454 -255.5t-515 -95.5q-212 0 -360 51t-238 156.5t-130 254.5t-40 357z" />
<glyph unicode="v" horiz-adv-x="2775" d="M60 3012h504l831 -2484q597 1347 834 2484h468q-185 -771 -463 -1554t-617 -1458h-462z" />
<glyph unicode="w" horiz-adv-x="4116" d="M75 3012h489l690 -2448l582 2448h486l639 -2448q376 1138 609 2448h447q-258 -1558 -828 -3012h-498l-417 1536q-44 161 -90.5 391.5t-71.5 380.5l-24 149q-8 -61 -22.5 -162t-59.5 -346.5t-89 -412.5l-411 -1536h-516z" />
<glyph unicode="x" horiz-adv-x="2604" d="M75 0l951 1560l-903 1452h510l651 -1047l633 1047h492l-879 -1434l1002 -1578h-522l-732 1173l-714 -1173h-489z" />
<glyph unicode="y" horiz-adv-x="2787" d="M69 3012h489l702 -1974q117 -336 165 -615q460 1144 825 2589h465q-63 -245 -129.5 -487t-163.5 -565.5t-194.5 -617t-219.5 -614.5t-242 -586t-258.5 -504t-271.5 -394q-131 -153 -306.5 -240.5t-413.5 -146.5l-99 357q209 46 456 258q21 18 41.5 39t42 50t37 49t39 59 t34 55t35.5 62t30 55t31.5 59.5t27.5 51.5z" />
<glyph unicode="z" horiz-adv-x="2616" d="M210 0v399q404 668 775 1207.5t779 1009.5h-1431v396h1971v-408q-867 -1054 -1554 -2205h1671v-399h-2211z" />
<glyph unicode="{" horiz-adv-x="2043" d="M246 1623v288q92 0 182.5 56.5t162 153t115.5 235.5t44 293v1080q0 150 19.5 270.5t51 202.5t80.5 143t98.5 95t114 54.5t118.5 26.5t121 6h360l69 -330h-363q-119 0 -179.5 -44.5t-87.5 -162t-27 -348.5v-1080q0 -113 -25 -218.5t-65.5 -184t-89 -147.5t-97 -115.5 t-89 -80t-65.5 -48.5l-25 -16q10 -5 26 -14.5t63.5 -44.5t90.5 -76.5t95.5 -109.5t90.5 -143.5t64 -180t26 -217.5v-1083q0 -117 6 -199t21.5 -145t38.5 -100.5t61.5 -61t86 -32t116.5 -8.5h327l-69 -333h-348q-67 0 -121.5 6t-120.5 25.5t-116.5 53t-100.5 93.5t-83 141.5 t-53 202t-20 270.5v1083q0 154 -44.5 294t-115.5 237.5t-161.5 155t-182.5 57.5z" />
<glyph unicode="|" horiz-adv-x="1362" d="M498 -111v4755h369v-4755h-369z" />
<glyph unicode="}" horiz-adv-x="2043" d="M246 -663h324q83 0 136.5 13.5t94 46.5t61.5 97.5t31 156t10 232.5v1083q0 113 25 217t65.5 180.5t89 143t97 110.5t89 75.5t65.5 45.5l25 14q-10 5 -26 15.5t-63.5 48.5t-90.5 81t-95.5 114.5t-90.5 148.5t-64 183t-26 219v1080q0 231 -27 348.5t-87.5 162t-179.5 44.5 h-363l66 330h363q67 0 121 -6t118.5 -26.5t114 -54.5t98.5 -95t80.5 -143t51 -202.5t19.5 -270.5v-1080q0 -154 44 -293t115.5 -235.5t162 -153t182.5 -56.5v-288q-92 0 -182.5 -57.5t-161.5 -155t-115.5 -237.5t-44.5 -294v-1083q0 -150 -20 -270.5t-53 -202t-83 -141.5 t-100.5 -93.5t-116.5 -53t-120.5 -25.5t-121.5 -6h-351z" />
<glyph unicode="~" horiz-adv-x="4089" d="M897 1512v381q73 161 219.5 271t314.5 110q127 0 264 -43.5t257 -105t239 -123t252 -105t254 -43.5q182 0 301 91t197 266l-6 -441q-74 -142 -223 -231.5t-311 -89.5q-126 0 -262.5 43.5t-257.5 105t-241 123t-252.5 105t-252.5 43.5q-94 0 -170 -24.5t-134.5 -74 t-102 -111t-85.5 -147.5z" />
<glyph unicode="&#xa1;" horiz-adv-x="1620" d="M357 2715q0 155 119 268t274 113q145 0 251 -100.5t106 -250.5q0 -151 -119 -261.5t-274 -110.5q-145 0 -251 98t-106 244zM429 -1290q105 589 105 1185v2115h369q8 -155 31 -555.5t32.5 -596t19.5 -513.5t10 -597q0 -522 -99 -978z" />
<glyph unicode="&#xa2;" horiz-adv-x="2529" d="M300 1476q0 712 303 1116q135 188 329 318t415 174v423h276v-417q177 -19 363 -98.5t306 -195.5l-210 -276q-90 72 -215 124t-244 71v-2433q129 16 294 93.5t306 170.5l156 -288q-138 -129 -349 -223t-407 -122v-369h-276v369q-195 31 -371.5 134.5t-306.5 258.5 q-100 116 -173.5 257.5t-115 294t-61 305t-19.5 313.5zM768 1536q0 -129 18 -268t61.5 -292t107.5 -282.5t165.5 -235t226.5 -152.5v2385q-127 -42 -229 -138t-166 -215t-106.5 -263t-60 -277t-17.5 -262z" />
<glyph unicode="&#xa3;" horiz-adv-x="2715" d="M183 2373l123 306h240v810q0 134 39.5 247.5t110.5 195.5t164.5 144.5t206 100t229.5 56t240 18.5q170 0 352.5 -41.5t286.5 -129.5l-105 -282q-91 53 -233.5 82t-264.5 29q-261 0 -409.5 -126t-148.5 -384v-720h822v-369h-822v-780q0 -547 -141 -1155h435 q40 -13 104.5 -32.5t209.5 -52t226 -32.5q145 0 293 79t238 197l66 -306q-123 -137 -307.5 -229t-355.5 -92q-81 0 -214.5 23.5t-226.5 46.5l-93 23h-921q219 976 219 1542v792z" />
<glyph unicode="&#xa4;" horiz-adv-x="3330" d="M60 1494l186 387h447q-6 81 -6 189q0 117 6 198h-633l186 387h492q28 264 112.5 502t225 435.5t325 342t423.5 224.5t510 80q615 0 1044 -429l-171 -369q-173 210 -390.5 310.5t-512.5 100.5q-497 0 -781.5 -309.5t-355.5 -887.5h1683l-183 -387h-1548q-12 -162 -12 -204 q0 -45 12 -183h1368l-183 -387h-1137q34 -289 129.5 -515.5t237.5 -371.5t321.5 -220t388.5 -75q257 0 512.5 129.5t438.5 356.5v-492q-173 -173 -425 -277t-559 -104q-287 0 -541 109.5t-448.5 309.5t-322 496t-161.5 654h-678z" />
<glyph unicode="&#xa5;" horiz-adv-x="2922" d="M75 3870h522l864 -1929l867 1929h516q-711 -1554 -717 -1554h741v-369h-909l-252 -546v-30h1149v-369h-1149v-1002h-489v1002h-1125v369h1125v36l-252 540h-861v369h687z" />
<glyph unicode="&#xa7;" horiz-adv-x="2580" d="M129 -570l171 336q445 -270 924 -270q97 0 183.5 18.5t161 58t128.5 98t84.5 142.5t30.5 187q0 91 -42.5 172.5t-100 139t-166 123t-188 104.5t-218.5 103q-92 42 -139 64t-132 65t-132 72t-117 76t-109.5 86.5t-86.5 94.5t-71 109t-41 120.5t-17 137.5q0 189 59.5 339.5 t170 253t258.5 166.5t334 90q-241 113 -297 143q-269 141 -386 300q-115 156 -115 355q0 171 55 313.5t150.5 242.5t225 169.5t278 102.5t311.5 33q225 0 458 -62t427 -172l-165 -318q-198 94 -373 144.5t-359 50.5q-114 0 -212.5 -31.5t-173 -91.5t-117.5 -153.5 t-43 -209.5q0 -70 35 -134.5t87 -113t141 -102t166 -91.5t193 -92q124 -57 188.5 -88.5t178.5 -94.5t177.5 -111.5t145.5 -125.5t125 -152t74 -175.5t31 -210.5q0 -327 -177 -537.5t-498 -281.5q75 -38 131.5 -69.5t128 -77.5t123.5 -89t105.5 -101t87 -117.5t54.5 -133.5 t21 -153q0 -186 -53 -342t-148 -268t-227.5 -190t-291.5 -116t-339 -38q-267 0 -548 81.5t-520 221.5zM714 1488q0 -71 30.5 -134.5t81 -108.5t114.5 -78t131.5 -49.5t131.5 -16.5q102 0 193 16.5t175 55t144.5 96.5t96.5 145.5t36 196.5q0 100 -45 184t-118.5 137.5 t-165 83.5t-187.5 30q-283 0 -450.5 -141t-167.5 -417z" />
<glyph unicode="&#xa8;" horiz-adv-x="2358" d="M363 3828q0 87 49 171.5t131 138t171 53.5q103 0 177.5 -71t74.5 -175q0 -89 -55 -169.5t-140.5 -128t-173.5 -47.5q-98 0 -166 64t-68 164zM1308 3828q0 87 49 171.5t131 138t171 53.5q103 0 177.5 -71t74.5 -175q0 -89 -55 -169.5t-140.5 -128t-173.5 -47.5 q-98 0 -166 64t-68 164z" />
<glyph unicode="&#xa9;" horiz-adv-x="5400" d="M738 1506q0 268 70.5 523t197 471t308 398t397.5 309.5t472 198.5t526 71t526.5 -70.5t474 -197t400 -308t310 -397.5t198.5 -472t71 -526q0 -269 -71.5 -526t-200 -474t-311.5 -400t-400.5 -310.5t-473.5 -198.5t-523 -71t-522.5 71.5t-471.5 200t-398.5 311.5 t-309.5 400.5t-198 473.5t-71 523zM1038 1506q0 -233 60 -452t168.5 -403t264 -337.5t341 -260t404.5 -165.5t451 -59q227 0 442.5 60.5t397.5 169t334.5 264t259 339.5t166 400.5t59.5 443.5t-60.5 444t-169 400.5t-264 339t-339 264t-400.5 169t-444 60.5 q-228 0 -445 -60.5t-400.5 -169t-337.5 -264t-261 -339.5t-167 -400.5t-60 -443.5zM1782 1500q0 144 26.5 280.5t77.5 260.5t131 228t181.5 180t235.5 118.5t287 42.5q161 0 335.5 -64.5t291.5 -172.5l-165 -210q-84 71 -214.5 112t-247.5 41q-132 0 -235.5 -46.5 t-168.5 -122.5t-107.5 -181.5t-59.5 -215t-17 -232.5q0 -129 20 -244.5t67 -223t118 -185.5t180.5 -125t247.5 -47q114 0 257.5 63t258.5 147l129 -204q-124 -114 -314 -204t-343 -90q-185 0 -343.5 57t-273 158.5t-195.5 239t-120.5 300t-39.5 340.5z" />
<glyph unicode="&#xaa;" horiz-adv-x="2580" d="M288 2304q0 164 59 299t158 226t231.5 154t276 91t295.5 28q272 0 524 -107t403 -310l-243 -246q-131 131 -323 215.5t-373 84.5q-78 0 -154 -14.5t-147 -47.5t-125.5 -79.5t-87 -116.5t-32.5 -153q0 -67 28 -127.5t59.5 -99.5t100.5 -86t103 -65.5t115 -59.5 q11 -6 17 -9l567 -276q552 -269 552 -825q0 -177 -59 -324t-159.5 -247t-237 -169.5t-288.5 -101t-318 -31.5q-224 0 -463.5 100t-415.5 257l171 333q165 -127 369 -227t363 -100q89 0 172 15.5t159.5 51.5t133 88.5t90 131t33.5 175.5q0 71 -21.5 134t-55 109.5t-85.5 90 t-102.5 74t-116.5 63.5l-639 321q-260 131 -397 319t-137 461zM351 4227l195 276q353 -192 744 -615q13 12 76.5 72.5t82 77.5t76 71t84 76t79 67t88 70t84 60t94 62.5t92.5 52.5l198 -276q-611 -436 -948 -897q-408 533 -945 903z" />
<glyph unicode="&#xab;" horiz-adv-x="3072" d="M204 1536l1134 1155l291 -234l-915 -921l927 -921l-288 -234zM1296 1536l1137 1155l288 -234l-915 -921l927 -921l-288 -234z" />
<glyph unicode="&#xac;" horiz-adv-x="3285" d="M282 2280v369h2478v-1569l-363 -66v1266h-2115z" />
<glyph unicode="&#xad;" horiz-adv-x="1854" d="M333 1383v369h1173v-369h-1173z" />
<glyph unicode="&#xae;" horiz-adv-x="5400" d="M726 1500q0 270 70 526t196 472t307 397.5t397 308t473 197t528 70.5t528 -70.5t473 -197t397 -308t307 -397.5t196 -472t70 -526t-70.5 -526.5t-197 -474t-308 -400t-397.5 -310t-472 -198.5t-526 -71q-267 0 -522.5 71.5t-471.5 200t-398.5 311.5t-309.5 400.5 t-198 473.5t-71 523zM1026 1500q0 -236 60 -456.5t168 -404t262.5 -336.5t340 -258.5t405.5 -163.5t453 -58q228 0 444 60.5t397 169t333 263.5t257 339.5t163.5 401t58.5 443.5t-60 444t-168 400.5t-262.5 339t-337.5 264t-399.5 169t-443.5 60.5q-228 0 -445 -60.5 t-400.5 -169t-337.5 -264t-261 -339.5t-167 -400.5t-60 -443.5zM2064 435v2181h528q139 0 266.5 -25t243.5 -80.5t201 -137t135.5 -201.5t50.5 -267q0 -164 -75 -325t-212.5 -274t-300.5 -127l675 -651v-93h-327l-735 744q-63 16 -135 57v-801h-315zM2379 1494 q59 -27 95 -41t88.5 -27t98.5 -13q229 0 366.5 137.5t137.5 366.5q0 97 -31.5 174t-85 127.5t-128 84t-155.5 47.5t-173 14h-213v-870z" />
<glyph unicode="&#xaf;" horiz-adv-x="2058" d="M183 3522v360h1686v-360h-1686z" />
<glyph unicode="&#xb0;" horiz-adv-x="2160" d="M204 3114q0 172 68 330.5t182 273t272 183t330 68.5q230 0 427 -115.5t312.5 -312.5t115.5 -427q0 -172 -68.5 -330t-183 -272t-273 -182t-330.5 -68t-330 68t-272 182t-182 272t-68 330zM480 3114q0 -117 45.5 -223.5t123 -184t184 -123t223.5 -45.5q156 0 289.5 77 t211.5 210t78 289t-78 289.5t-211.5 211.5t-289.5 78t-289 -78t-210 -211.5t-77 -289.5z" />
<glyph unicode="&#xb1;" horiz-adv-x="2745" d="M276 1353v366h990v1065h357v-1065h993v-366h-993v-768h-357v768h-990zM339 -6v369h2217v-369h-2217z" />
<glyph unicode="&#xb4;" horiz-adv-x="2076" d="M363 3723q174 126 335 264.5t267 246.5t187.5 198.5t118.5 139.5l37 48l381 -387q-17 -17 -49.5 -47t-143 -121t-232.5 -180.5t-314 -211t-392 -226.5z" />
<glyph unicode="&#xb5;" horiz-adv-x="3186" d="M381 -1080q69 155 123 352t54 335q0 188 -33 559.5t-33 559.5v2286h465v-2286q0 -62 3 -108t12 -94t24.5 -81.5t41.5 -64.5t62 -49.5t86.5 -29.5t115.5 -11q135 0 311.5 49t340 130.5t263.5 171.5v2373h468v-2550q0 -29 0.5 -45t2.5 -45.5t7 -47t14.5 -40t22.5 -35 t34 -22.5t48 -11l-153 -309q-167 0 -288.5 94.5t-143.5 256.5q-189 -157 -456.5 -254t-512.5 -97q-86 0 -264 93q117 -358 117 -540q0 -231 -117 -432z" />
<glyph unicode="&#xb6;" horiz-adv-x="3336" d="M165 2784q0 253 82.5 471t230.5 374t362.5 245t467.5 89q161 0 342 -16t397 -41.5t338 -35.5l-6 264h342q0 -177 -6 -264l339 57l-18 -315l-321 -72q0 -388 -30 -813.5t-95 -886.5t-158 -896t-229 -855.5t-298 -751.5l-393 123q175 318 319.5 725t241.5 827t164 870 t97 862.5t30 795.5q-73 7 -270 31t-335.5 35.5t-270.5 11.5q-92 0 -167 -32t-125.5 -88t-87 -125.5t-56.5 -153t-29 -161t-9 -157.5q0 -82 6 -162.5t22 -175t41.5 -176.5t68 -160t98 -133.5t135 -89t175.5 -33.5q129 0 259 50t239 136q-74 -147 -156 -254.5t-188 -189.5 t-239.5 -123.5t-295.5 -41.5q-170 0 -317 48t-257 134.5t-195 202.5t-138 255t-80 288.5t-27 307.5z" />
<glyph unicode="&#xb7;" horiz-adv-x="1584" d="M441 1482q0 154 120 263t276 109q145 0 249.5 -98t104.5 -244q0 -151 -119 -263t-274 -112q-145 0 -251 99.5t-106 245.5z" />
<glyph unicode="&#xb8;" horiz-adv-x="2469" d="M1167 -6h639q90 -66 159 -173.5t69 -207.5q0 -84 -42.5 -173t-109.5 -164t-152 -143.5t-168.5 -118t-160.5 -82.5l-234 189q189 104 274 165q224 160 224 297q0 81 -56 129t-142 48q-28 0 -57 -2.5t-65.5 -10t-55 -11.5t-65 -15.5t-57.5 -14.5v288z" />
<glyph unicode="&#xba;" horiz-adv-x="2529" d="M300 1476q0 157 22 316.5t69 320.5t116 305.5t168.5 270t219.5 217t277 144t334 52.5q206 0 423 -83t363 -223l-210 -276q-113 94 -268.5 153.5t-301.5 59.5q-114 0 -214.5 -43.5t-174.5 -116.5t-135 -172.5t-101 -208.5t-67.5 -226.5t-39.5 -224.5t-12 -205 q0 -106 11.5 -219t39 -237.5t68 -238.5t104 -218t141.5 -180.5t185 -121.5t231 -45q138 0 326 83t349 187l156 -288q-175 -149 -415 -250t-452 -101q-177 0 -334 48.5t-278 133.5t-221 203t-169.5 256.5t-117.5 294t-70 314t-22 319.5zM768 3723q174 126 335 264.5 t267 246.5t187.5 198.5t118.5 139.5l37 48l381 -387q-17 -17 -49 -47t-142 -121t-231.5 -180.5t-313.5 -211t-392 -226.5z" />
<glyph unicode="&#xbb;" horiz-adv-x="3072" d="M393 615l288 -234l1149 1155l-1137 1155l-288 -234l915 -921zM1488 615l288 -234l1149 1155l-1137 1155l-288 -234l915 -921z" />
<glyph unicode="&#xbf;" horiz-adv-x="2199" d="M258 -492q0 91 23 181.5t69 180t93 162.5t115 166l492 645q138 186 189 366.5t51 491.5v297h375v-297v-28q0 -92 -0.5 -139t-3 -129.5t-8.5 -131.5t-17 -121t-28 -125t-41.5 -116t-58.5 -121t-77 -115l-504 -675q-207 -271 -207 -480q0 -178 90 -282.5t264 -104.5 q255 0 516 57v-351q-341 -81 -552 -81q-177 0 -319.5 47t-245.5 138.5t-159 235t-56 329.5zM1107 2727q0 102 55.5 189t146 136.5t191.5 49.5q146 0 250 -96.5t104 -245.5q0 -151 -119 -263t-274 -112q-145 0 -249.5 98t-104.5 244z" />
<glyph unicode="&#xc0;" horiz-adv-x="3132" d="M75 0l1227 3870h528l1230 -3870h-504l-411 1248h-1155l-411 -1248h-504zM921 5031l381 387q320 -442 948 -897l-198 -276q-724 387 -1131 786zM1107 1653h921l-462 1707z" />
<glyph unicode="&#xc1;" horiz-adv-x="3132" d="M75 0l1227 3870h528l1230 -3870h-504l-411 1248h-1155l-411 -1248h-504zM921 4521q174 126 335.5 264.5t268 247t188 198.5t119.5 139l37 48l381 -387q-17 -17 -49.5 -47t-143 -121t-232.5 -180.5t-314 -211t-392 -226.5zM1107 1653h921l-462 1707z" />
<glyph unicode="&#xc2;" horiz-adv-x="3132" d="M75 0l1227 3870h528l1230 -3870h-504l-411 1248h-1155l-411 -1248h-504zM609 4515q492 339 939 903q189 -244 433.5 -475.5t505.5 -421.5l-195 -282q-199 106 -378 259.5t-366 355.5q-188 -203 -369 -358.5t-375 -256.5zM1107 1653h921l-462 1707z" />
<glyph unicode="&#xc3;" horiz-adv-x="3132" d="M75 0l1227 3870h528l1230 -3870h-504l-411 1248h-1155l-411 -1248h-504zM417 4743q228 180 402 268.5t336 88.5q95 0 190 -28t173 -67.5t153.5 -79t160.5 -67.5t166 -28q70 0 126 8t96 18.5t93.5 40t88.5 52.5t112 76l189 -234q-217 -204 -371.5 -273t-378.5 -69 q-71 0 -151 28t-155.5 67.5t-153.5 79t-172 67.5t-184 28q-44 0 -94 -12t-87.5 -25.5t-95.5 -44.5t-85.5 -47.5t-93 -57.5t-84.5 -53zM1107 1653h921l-462 1707z" />
<glyph unicode="&#xc4;" horiz-adv-x="3132" d="M75 0l1227 3870h528l1230 -3870h-504l-411 1248h-1155l-411 -1248h-504zM774 4626q0 87 49 171.5t131 138t171 53.5q103 0 177.5 -71t74.5 -175q0 -89 -55 -169.5t-140.5 -128t-173.5 -47.5q-98 0 -166 64t-68 164zM1107 1653h921l-462 1707zM1719 4626q0 87 49 171.5 t131 138t171 53.5q103 0 177.5 -71t74.5 -175q0 -89 -55 -169.5t-140.5 -128t-173.5 -47.5q-98 0 -166 64t-68 164z" />
<glyph unicode="&#xc5;" horiz-adv-x="3132" d="M75 0l1227 3870h528l1230 -3870h-504l-411 1248h-1155l-411 -1248h-504zM927 4818q0 175 89 325.5t239 238t323 87.5q129 0 247.5 -52t204 -139.5t136.5 -208t51 -251.5t-52 -251.5t-139.5 -208t-208 -139.5t-251.5 -52q-129 0 -247.5 52t-204 139.5t-136.5 208 t-51 251.5zM1107 1653h921l-462 1707zM1203 4818q0 -97 51 -182.5t135 -136t177 -50.5q148 0 258.5 110.5t110.5 258.5q0 149 -104.5 259t-246.5 110q-157 0 -269 -110t-112 -259z" />
<glyph unicode="&#xc6;" horiz-adv-x="4458" d="M75 0l1221 3870h573l294 -1296v1296h1989v-411h-1497v-1230h1149v-423h-1149v-1383h1560v-423h-2052v1248h-1167l-411 -1248h-510zM1113 1653h915l-462 1707z" />
<glyph unicode="&#xc7;" horiz-adv-x="3051" d="M339 1935q0 197 27 396.5t85.5 400t144 381t209.5 336.5t274 270t346 179t417 65q254 0 528.5 -68.5t467.5 -195.5l-177 -321q-198 106 -396 155t-423 49q-126 0 -251.5 -55t-227.5 -146t-183 -198t-136 -222q-110 -224 -163 -497.5t-53 -552.5q0 -146 13.5 -293 t47.5 -309t85.5 -305.5t133.5 -275.5t185.5 -227t247.5 -151t313 -56q210 0 442 73t389 197l216 -312q-143 -115 -350.5 -201.5t-399.5 -119.5q159 -159 159 -318q0 -84 -42.5 -173t-109.5 -164t-152 -143.5t-168.5 -118t-160.5 -82.5l-234 189q189 104 274 165 q224 160 224 297q0 81 -55 129t-140 48q-24 0 -51 -2.5t-48 -5.5t-53.5 -10t-48.5 -11t-53 -13t-49 -12v246q-178 49 -330 143t-263.5 215.5t-200 275t-146 315t-95 341.5t-53.5 349.5t-16 343.5z" />
<glyph unicode="&#xc8;" horiz-adv-x="2787" d="M492 0v3870h1989v-411h-1497v-1230h1149v-423h-1149v-1383h1560v-423h-2052zM855 5031l381 387q178 -240 423.5 -468.5t521.5 -428.5l-195 -276q-698 373 -1131 786z" />
<glyph unicode="&#xc9;" horiz-adv-x="2787" d="M492 0v3870h1989v-411h-1497v-1230h1149v-423h-1149v-1383h1560v-423h-2052zM867 4521q127 92 247.5 191t212 184t172.5 166.5t137 144.5t97 111.5t60 73.5l19 26l381 -387q-17 -17 -49.5 -47t-143 -121t-232.5 -180.5t-314 -211t-392 -226.5z" />
<glyph unicode="&#xca;" horiz-adv-x="2787" d="M492 0v3870h1989v-411h-1497v-1230h1149v-423h-1149v-1383h1560v-423h-2052zM552 4515q498 343 942 903q192 -248 435 -479.5t504 -417.5l-198 -282q-198 105 -375 257.5t-366 357.5q-202 -213 -377 -364t-367 -251z" />
<glyph unicode="&#xcb;" horiz-adv-x="2787" d="M492 0v3870h1989v-411h-1497v-1230h1149v-423h-1149v-1383h1560v-423h-2052zM720 4626q0 88 47 172t128.5 137.5t172.5 53.5q102 0 174 -70.5t72 -175.5q0 -89 -53.5 -169.5t-137.5 -128t-172 -47.5q-98 0 -164.5 64t-66.5 164zM1665 4626q0 88 47.5 172t130 137.5 t173.5 53.5q102 0 174 -70.5t72 -175.5q0 -89 -53.5 -169.5t-137.5 -128t-172 -47.5q-98 0 -166 64t-68 164z" />
<glyph unicode="&#xcc;" horiz-adv-x="1461" d="M75 5031l381 387q336 -462 945 -897l-198 -276q-705 371 -1128 786zM492 0v3870h480v-3870h-480z" />
<glyph unicode="&#xcd;" horiz-adv-x="1461" d="M69 4521q174 126 335 264.5t267 246.5t187.5 198.5t118.5 139.5l37 48l381 -387q-17 -17 -49.5 -47t-143 -121t-232.5 -180.5t-314 -211t-392 -226.5zM492 0v3870h480v-3870h-480z" />
<glyph unicode="&#xce;" horiz-adv-x="1461" d="M-210 4515q498 343 942 903q189 -244 433.5 -475.5t505.5 -421.5l-195 -282q-199 106 -378 259.5t-366 355.5q-188 -203 -369 -358.5t-375 -256.5zM492 0v3870h480v-3870h-480z" />
<glyph unicode="&#xcf;" horiz-adv-x="1461" d="M-42 4626q0 87 48 171.5t129.5 138t170.5 53.5q103 0 177.5 -71t74.5 -175q0 -89 -55 -169.5t-140.5 -128t-173.5 -47.5q-98 0 -164.5 64t-66.5 164zM492 0v3870h480v-3870h-480zM903 4626q0 87 49 171.5t131 138t171 53.5q103 0 177.5 -71t74.5 -175q0 -89 -55 -169.5 t-140.5 -128t-173.5 -47.5q-98 0 -166 64t-68 164z" />
<glyph unicode="&#xd1;" horiz-adv-x="3402" d="M492 0v3870h651l1308 -2961q-30 295 -30 540v2421h492v-3870h-504l-1458 3159q33 -313 33 -528v-2631h-492zM585 4743q229 181 401.5 269t333.5 88q95 0 190 -28t173 -67.5t153.5 -79t160.5 -67.5t166 -28q70 0 126 8t96 18.5t93.5 40t88.5 52.5t112 76l189 -234 q-218 -204 -370.5 -273t-376.5 -69q-71 0 -151.5 28t-156 67.5t-154.5 79t-173 67.5t-184 28q-44 0 -94 -12t-87.5 -25.5t-95.5 -44.5t-85.5 -47.5t-93 -57.5t-84.5 -53z" />
<glyph unicode="&#xd2;" horiz-adv-x="3366" d="M339 1935q0 181 21 369.5t69.5 389t120.5 382.5t181.5 345.5t244 282.5t316.5 189t391 70t391.5 -70t317 -189t244.5 -282.5t182 -345.5t121 -382.5t70 -389t21 -369.5t-21 -369.5t-70 -389t-121 -382.5t-182 -345.5t-244.5 -282.5t-317 -189t-391.5 -70t-391 70 t-316.5 189t-244 282.5t-181.5 345.5t-120.5 382.5t-69.5 389t-21 369.5zM828 1935q0 -87 7.5 -187t24.5 -218.5t42.5 -237t64 -239t86.5 -228.5t113.5 -202.5t141 -163t172 -108t203.5 -39.5t203.5 39.5t172 108t141 163t113.5 202.5t86.5 228.5t64 239t42.5 237 t24.5 218.5t7.5 187t-7.5 187t-24.5 218.5t-42.5 237t-64 239t-86.5 228.5t-113.5 202.5t-141 163t-172 108t-203.5 39.5t-203.5 -39.5t-172 -108t-141 -163t-113.5 -202.5t-86.5 -228.5t-64 -239t-42.5 -237t-24.5 -218.5t-7.5 -187zM1008 5031l381 387q324 -446 945 -897 l-195 -276q-724 387 -1131 786z" />
<glyph unicode="&#xd3;" horiz-adv-x="3366" d="M339 1935q0 181 21 369.5t69.5 389t120.5 382.5t181.5 345.5t244 282.5t316.5 189t391 70t391.5 -70t317 -189t244.5 -282.5t182 -345.5t121 -382.5t70 -389t21 -369.5t-21 -369.5t-70 -389t-121 -382.5t-182 -345.5t-244.5 -282.5t-317 -189t-391.5 -70t-391 70 t-316.5 189t-244 282.5t-181.5 345.5t-120.5 382.5t-69.5 389t-21 369.5zM828 1935q0 -87 7.5 -187t24.5 -218.5t42.5 -237t64 -239t86.5 -228.5t113.5 -202.5t141 -163t172 -108t203.5 -39.5t203.5 39.5t172 108t141 163t113.5 202.5t86.5 228.5t64 239t42.5 237 t24.5 218.5t7.5 187t-7.5 187t-24.5 218.5t-42.5 237t-64 239t-86.5 228.5t-113.5 202.5t-141 163t-172 108t-203.5 39.5t-203.5 -39.5t-172 -108t-141 -163t-113.5 -202.5t-86.5 -228.5t-64 -239t-42.5 -237t-24.5 -218.5t-7.5 -187zM1026 4521q127 92 247.5 191t212 184 t172.5 166.5t137 144.5t97 111.5t60 73.5l19 26l381 -387q-17 -17 -49 -47t-142 -121t-231.5 -180.5t-313.5 -211t-392 -226.5z" />
<glyph unicode="&#xd4;" horiz-adv-x="3366" d="M339 1935q0 181 21 369.5t69.5 389t120.5 382.5t181.5 345.5t244 282.5t316.5 189t391 70t391.5 -70t317 -189t244.5 -282.5t182 -345.5t121 -382.5t70 -389t21 -369.5t-21 -369.5t-70 -389t-121 -382.5t-182 -345.5t-244.5 -282.5t-317 -189t-391.5 -70t-391 70 t-316.5 189t-244 282.5t-181.5 345.5t-120.5 382.5t-69.5 389t-21 369.5zM738 4533q482 327 939 903q189 -244 433.5 -475.5t505.5 -421.5l-195 -282q-136 69 -275 175.5t-242 206t-227 233.5q-184 -204 -364 -358.5t-380 -256.5zM828 1935q0 -87 7.5 -187t24.5 -218.5 t42.5 -237t64 -239t86.5 -228.5t113.5 -202.5t141 -163t172 -108t203.5 -39.5t203.5 39.5t172 108t141 163t113.5 202.5t86.5 228.5t64 239t42.5 237t24.5 218.5t7.5 187t-7.5 187t-24.5 218.5t-42.5 237t-64 239t-86.5 228.5t-113.5 202.5t-141 163t-172 108t-203.5 39.5 t-203.5 -39.5t-172 -108t-141 -163t-113.5 -202.5t-86.5 -228.5t-64 -239t-42.5 -237t-24.5 -218.5t-7.5 -187z" />
<glyph unicode="&#xd5;" horiz-adv-x="3366" d="M339 1935q0 181 21 369.5t69.5 389t120.5 382.5t181.5 345.5t244 282.5t316.5 189t391 70t391.5 -70t317 -189t244.5 -282.5t182 -345.5t121 -382.5t70 -389t21 -369.5t-21 -369.5t-70 -389t-121 -382.5t-182 -345.5t-244.5 -282.5t-317 -189t-391.5 -70t-391 70 t-316.5 189t-244 282.5t-181.5 345.5t-120.5 382.5t-69.5 389t-21 369.5zM528 4743q228 180 402 268.5t336 88.5q95 0 189.5 -28t172.5 -67.5t153 -79t159.5 -67.5t165.5 -28q70 0 126 8t96 18.5t93.5 40t88.5 52.5t112 76l192 -234q-217 -204 -371.5 -273t-378.5 -69 q-71 0 -151 28t-155.5 67.5t-153.5 79t-172 67.5t-184 28q-44 0 -94 -12t-87.5 -25.5t-95.5 -44.5t-85.5 -47.5t-93 -57.5t-84.5 -53zM828 1935q0 -87 7.5 -187t24.5 -218.5t42.5 -237t64 -239t86.5 -228.5t113.5 -202.5t141 -163t172 -108t203.5 -39.5t203.5 39.5t172 108 t141 163t113.5 202.5t86.5 228.5t64 239t42.5 237t24.5 218.5t7.5 187t-7.5 187t-24.5 218.5t-42.5 237t-64 239t-86.5 228.5t-113.5 202.5t-141 163t-172 108t-203.5 39.5t-203.5 -39.5t-172 -108t-141 -163t-113.5 -202.5t-86.5 -228.5t-64 -239t-42.5 -237t-24.5 -218.5 t-7.5 -187z" />
<glyph unicode="&#xd6;" horiz-adv-x="3366" d="M339 1935q0 181 21 369.5t69.5 389t120.5 382.5t181.5 345.5t244 282.5t316.5 189t391 70t391.5 -70t317 -189t244.5 -282.5t182 -345.5t121 -382.5t70 -389t21 -369.5t-21 -369.5t-70 -389t-121 -382.5t-182 -345.5t-244.5 -282.5t-317 -189t-391.5 -70t-391 70 t-316.5 189t-244 282.5t-181.5 345.5t-120.5 382.5t-69.5 389t-21 369.5zM828 1935q0 -87 7.5 -187t24.5 -218.5t42.5 -237t64 -239t86.5 -228.5t113.5 -202.5t141 -163t172 -108t203.5 -39.5t203.5 39.5t172 108t141 163t113.5 202.5t86.5 228.5t64 239t42.5 237 t24.5 218.5t7.5 187t-7.5 187t-24.5 218.5t-42.5 237t-64 239t-86.5 228.5t-113.5 202.5t-141 163t-172 108t-203.5 39.5t-203.5 -39.5t-172 -108t-141 -163t-113.5 -202.5t-86.5 -228.5t-64 -239t-42.5 -237t-24.5 -218.5t-7.5 -187zM897 4626q0 87 49 171.5t131 138 t171 53.5q103 0 177.5 -71t74.5 -175q0 -89 -55 -169.5t-140.5 -128t-173.5 -47.5q-98 0 -166 64t-68 164zM1842 4626q0 87 49 171.5t131 138t171 53.5q103 0 177.5 -71t74.5 -175q0 -89 -55 -169.5t-140.5 -128t-173.5 -47.5q-98 0 -166 64t-68 164z" />
<glyph unicode="&#xd8;" horiz-adv-x="3366" d="M339 1959q0 139 13 283.5t41.5 298.5t71 300.5t105.5 289t140 266t179.5 228.5t220 179.5t264 116.5t309.5 42q224 0 417 -81l210 720h306l-252 -879q144 -116 260 -281t190.5 -345t124 -384.5t70.5 -395.5t21 -382q0 -183 -21 -371.5t-69.5 -389.5t-120 -382.5 t-181 -344.5t-244.5 -282t-317.5 -188.5t-393.5 -69.5q-181 0 -393 69l-240 -837h-306l282 990q-149 116 -269 284.5t-196.5 353t-127.5 395t-72.5 406.5t-21.5 391zM828 1899q0 -174 14 -339.5t47.5 -350t101.5 -351.5t164 -288l837 2913q-145 75 -309 75 q-122 0 -228 -39.5t-185 -106t-144.5 -162.5t-110.5 -201.5t-79.5 -231t-54.5 -242.5t-32.5 -244.5t-16.5 -228.5t-4 -203zM1401 369q147 -57 282 -57q124 0 230 38t185.5 102t145 157.5t110 195t78.5 224.5t54 236.5t32 240t16 226.5t4 203q0 135 -7.5 264t-29 279.5 t-55 282.5t-89 264.5t-128.5 235.5z" />
<glyph unicode="&#xd9;" horiz-adv-x="3426" d="M486 1506v2364h492v-2370q0 -118 7 -223.5t27.5 -229t53.5 -225t90 -199t131.5 -164t183.5 -107t242 -40.5q106 0 196.5 25t159 67.5t125 105.5t95.5 133.5t68.5 157.5t47 171t28.5 180.5t14.5 179t3.5 174.5v2364h492v-2388q0 -177 -19.5 -340.5t-63.5 -323 t-110.5 -294.5t-166 -250t-223.5 -195.5t-289 -126t-358 -45.5q-192 0 -356 45.5t-288 127t-223 198t-165.5 253.5t-111 298.5t-64 328.5t-19.5 348zM1062 5031l381 387q320 -442 948 -897l-198 -276q-724 387 -1131 786z" />
<glyph unicode="&#xda;" horiz-adv-x="3426" d="M486 1506v2364h492v-2370q0 -118 7 -223.5t27.5 -229t53.5 -225t90 -199t131.5 -164t183.5 -107t242 -40.5q106 0 196.5 25t159 67.5t125 105.5t95.5 133.5t68.5 157.5t47 171t28.5 180.5t14.5 179t3.5 174.5v2364h492v-2388q0 -177 -19.5 -340.5t-63.5 -323 t-110.5 -294.5t-166 -250t-223.5 -195.5t-289 -126t-358 -45.5q-192 0 -356 45.5t-288 127t-223 198t-165.5 253.5t-111 298.5t-64 328.5t-19.5 348zM1074 4521q174 126 335.5 264.5t268 247t188 198.5t118.5 139l38 48l381 -387q-17 -17 -49.5 -47t-143 -121t-232.5 -180.5 t-314 -211t-392 -226.5z" />
<glyph unicode="&#xdb;" horiz-adv-x="3426" d="M486 1506v2364h492v-2370q0 -118 7 -223.5t27.5 -229t53.5 -225t90 -199t131.5 -164t183.5 -107t242 -40.5q106 0 196.5 25t159 67.5t125 105.5t95.5 133.5t68.5 157.5t47 171t28.5 180.5t14.5 179t3.5 174.5v2364h492v-2388q0 -177 -19.5 -340.5t-63.5 -323 t-110.5 -294.5t-166 -250t-223.5 -195.5t-289 -126t-358 -45.5q-192 0 -356 45.5t-288 127t-223 198t-165.5 253.5t-111 298.5t-64 328.5t-19.5 348zM762 4515q492 339 939 903q188 -243 433.5 -474.5t508.5 -422.5l-198 -282q-199 106 -378 259.5t-366 355.5 q-188 -203 -369 -358.5t-375 -256.5z" />
<glyph unicode="&#xdc;" horiz-adv-x="3378" d="M486 1506v2364h492v-2370q0 -118 7 -223.5t27.5 -229t53.5 -225t90 -199t131.5 -164t183.5 -107t242 -40.5q106 0 196.5 25t159 67.5t125 105.5t95.5 133.5t68.5 157.5t47 171t28.5 180.5t14.5 179t3.5 174.5v2364h492v-2388q0 -177 -19.5 -340.5t-63.5 -323 t-110.5 -294.5t-166 -250t-223.5 -195.5t-289 -126t-358 -45.5q-192 0 -356 45.5t-288 127t-223 198t-165.5 253.5t-111 298.5t-64 328.5t-19.5 348zM933 4626q0 87 49 171.5t131 138t171 53.5q103 0 177.5 -71t74.5 -175q0 -89 -55 -169.5t-140.5 -128t-173.5 -47.5 q-98 0 -166 64t-68 164zM1881 4626q0 87 48 171.5t129.5 138t170.5 53.5q103 0 177.5 -71t74.5 -175q0 -89 -54.5 -169.5t-139 -128t-172.5 -47.5q-98 0 -166 64t-68 164z" />
<glyph unicode="&#xdf;" horiz-adv-x="3513" d="M141 2709v303h405v465q0 165 64 308t172 244t248 173.5t293 107t306 34.5q228 0 427.5 -70.5t347 -198.5t232.5 -320.5t85 -424.5q0 -76 -13.5 -167t-25.5 -141.5t-44 -169.5t-40 -149q-66 34 -125.5 45.5t-144.5 11.5q-114 0 -212.5 -31.5t-173 -91.5t-117.5 -153.5 t-43 -209.5q0 -69 35 -132.5t84 -110t140 -101t162.5 -89.5t192.5 -92q97 -45 147.5 -69.5t143 -72.5t145 -82t130 -89t122.5 -103t98.5 -115t81 -133.5t47 -149.5t19.5 -173q0 -175 -59.5 -319.5t-160.5 -242.5t-238 -165t-288.5 -97.5t-315.5 -30.5q-272 0 -552.5 82.5 t-518.5 226.5l174 336q445 -276 921 -276q95 0 181.5 20t161.5 62t130 101.5t86.5 143.5t31.5 183q0 75 -24.5 141t-81 125t-110 103t-151 96.5t-162 84t-182.5 85.5t-179.5 83.5t-167.5 86.5t-164 99.5t-133 109t-113.5 131t-66.5 148.5t-28 177q0 208 75.5 372.5t208 268 t306 157.5t376.5 54q42 163 42 282q0 141 -51.5 255t-141 186.5t-208.5 111t-256 38.5q-125 0 -243 -41.5t-210 -115t-148 -184.5t-56 -241v-3399h-468v2655z" />
<glyph unicode="&#xe0;" horiz-adv-x="2862" d="M258 738q0 114 53.5 266t123.5 280l1446 615v387q0 213 -129.5 324t-344.5 111q-143 0 -304.5 -66.5t-293 -164t-230.5 -210.5l-174 288q185 231 473 382.5t571 151.5q201 0 363.5 -49.5t282.5 -148.5t185.5 -256t65.5 -362v-1875q0 -86 54 -134.5t144 -48.5q30 0 66 9.5 t57 26.5l117 -234q-79 -48 -176 -79.5t-181 -31.5q-245 0 -392.5 148.5t-147.5 394.5q-38 -132 -125 -239t-202.5 -175t-247.5 -104.5t-268 -36.5q-186 0 -335 61.5t-247.5 172t-151 263t-52.5 334.5zM720 756q0 -129 47 -236.5t143.5 -175.5t226.5 -68q113 0 217 46.5 t184 125t146 180t108.5 213.5t65.5 224t23 213v252l-1083 -456q-78 -173 -78 -318zM732 4233l381 387q324 -446 945 -897l-195 -276q-724 387 -1131 786z" />
<glyph unicode="&#xe1;" horiz-adv-x="2862" d="M258 738q0 114 53.5 266t123.5 280l1446 615v387q0 213 -129.5 324t-344.5 111q-143 0 -304.5 -66.5t-293 -164t-230.5 -210.5l-174 288q185 231 473 382.5t571 151.5q201 0 363.5 -49.5t282.5 -148.5t185.5 -256t65.5 -362v-1875q0 -86 54 -134.5t144 -48.5q30 0 66 9.5 t57 26.5l117 -234q-79 -48 -176 -79.5t-181 -31.5q-245 0 -392.5 148.5t-147.5 394.5q-38 -132 -125 -239t-202.5 -175t-247.5 -104.5t-268 -36.5q-186 0 -335 61.5t-247.5 172t-151 263t-52.5 334.5zM720 756q0 -129 47 -236.5t143.5 -175.5t226.5 -68q113 0 217 46.5 t184 125t146 180t108.5 213.5t65.5 224t23 213v252l-1083 -456q-78 -173 -78 -318zM774 3723q174 126 335 264.5t267 246.5t187.5 198.5t118.5 139.5l37 48l381 -387q-17 -17 -49 -47t-142 -121t-231.5 -180.5t-313.5 -211t-392 -226.5z" />
<glyph unicode="&#xe2;" horiz-adv-x="2862" d="M258 738q0 114 53.5 266t123.5 280l1446 615v387q0 213 -129.5 324t-344.5 111q-143 0 -304.5 -66.5t-293 -164t-230.5 -210.5l-174 288q185 231 473 382.5t571 151.5q201 0 363.5 -49.5t282.5 -148.5t185.5 -256t65.5 -362v-1875q0 -86 54 -134.5t144 -48.5q30 0 66 9.5 t57 26.5l117 -234q-79 -48 -176 -79.5t-181 -31.5q-245 0 -392.5 148.5t-147.5 394.5q-38 -132 -125 -239t-202.5 -175t-247.5 -104.5t-268 -36.5q-186 0 -335 61.5t-247.5 172t-151 263t-52.5 334.5zM441 3717q498 343 942 903q189 -244 433.5 -475.5t505.5 -421.5 l-195 -282q-199 106 -378 259.5t-366 355.5q-188 -203 -369 -358.5t-375 -256.5zM720 756q0 -129 47 -236.5t143.5 -175.5t226.5 -68q113 0 217 46.5t184 125t146 180t108.5 213.5t65.5 224t23 213v252l-1083 -456q-78 -173 -78 -318z" />
<glyph unicode="&#xe3;" horiz-adv-x="2862" d="M258 738q0 114 53.5 266t123.5 280l1446 615v387q0 213 -129.5 324t-344.5 111q-143 0 -304.5 -66.5t-293 -164t-230.5 -210.5l-174 288q185 231 473 382.5t571 151.5q201 0 363.5 -49.5t282.5 -148.5t185.5 -256t65.5 -362v-1875q0 -86 54 -134.5t144 -48.5q30 0 66 9.5 t57 26.5l117 -234q-79 -48 -176 -79.5t-181 -31.5q-245 0 -392.5 148.5t-147.5 394.5q-38 -132 -125 -239t-202.5 -175t-247.5 -104.5t-268 -36.5q-186 0 -335 61.5t-247.5 172t-151 263t-52.5 334.5zM258 3945q228 180 402 268.5t336 88.5q95 0 189.5 -28t172.5 -68 t153 -80.5t159.5 -68.5t165.5 -28q58 0 103.5 3.5t91 17.5t73 24t77.5 40.5t76 48t95 64.5l192 -234q-217 -204 -371.5 -273t-378.5 -69q-71 0 -151 28t-155.5 67.5t-153.5 79t-172 67.5t-184 28q-44 0 -94.5 -12t-87 -25t-97.5 -45.5t-85.5 -47t-94.5 -58t-84 -52.5z M720 756q0 -129 47 -236.5t143.5 -175.5t226.5 -68q113 0 217 46.5t184 125t146 180t108.5 213.5t65.5 224t23 213v252l-1083 -456q-78 -173 -78 -318z" />
<glyph unicode="&#xe4;" horiz-adv-x="2862" d="M258 738q0 114 53.5 266t123.5 280l1446 615v387q0 213 -129.5 324t-344.5 111q-143 0 -304.5 -66.5t-293 -164t-230.5 -210.5l-174 288q185 231 473 382.5t571 151.5q201 0 363.5 -49.5t282.5 -148.5t185.5 -256t65.5 -362v-1875q0 -86 54 -134.5t144 -48.5q30 0 66 9.5 t57 26.5l117 -234q-79 -48 -176 -79.5t-181 -31.5q-245 0 -392.5 148.5t-147.5 394.5q-38 -132 -125 -239t-202.5 -175t-247.5 -104.5t-268 -36.5q-186 0 -335 61.5t-247.5 172t-151 263t-52.5 334.5zM609 3828q0 87 48 171.5t129.5 138t170.5 53.5q103 0 177.5 -71 t74.5 -175q0 -89 -54.5 -169.5t-139 -128t-172.5 -47.5q-98 0 -166 64t-68 164zM720 756q0 -129 47 -236.5t143.5 -175.5t226.5 -68q113 0 217 46.5t184 125t146 180t108.5 213.5t65.5 224t23 213v252l-1083 -456q-78 -173 -78 -318zM1554 3828q0 87 49 171.5t131 138 t171 53.5q103 0 177.5 -71t74.5 -175q0 -89 -55 -169.5t-140.5 -128t-173.5 -47.5q-98 0 -166 64t-68 164z" />
<glyph unicode="&#xe5;" horiz-adv-x="2862" d="M258 738q0 114 53.5 266t123.5 280l1446 615v387q0 213 -129.5 324t-344.5 111q-143 0 -304.5 -66.5t-293 -164t-230.5 -210.5l-174 288q185 231 473 382.5t571 151.5q201 0 363.5 -49.5t282.5 -148.5t185.5 -256t65.5 -362v-1875q0 -86 54 -134.5t144 -48.5q30 0 66 9.5 t57 26.5l117 -234q-79 -48 -176 -79.5t-181 -31.5q-245 0 -392.5 148.5t-147.5 394.5q-38 -132 -125 -239t-202.5 -175t-247.5 -104.5t-268 -36.5q-186 0 -335 61.5t-247.5 172t-151 263t-52.5 334.5zM720 756q0 -129 47 -236.5t143.5 -175.5t226.5 -68q113 0 217 46.5 t184 125t146 180t108.5 213.5t65.5 224t23 213v252l-1083 -456q-78 -173 -78 -318zM732 4050q0 172 89 322.5t239.5 239.5t322.5 89q175 0 322.5 -89t232 -239t84.5 -323q0 -131 -52 -251.5t-139.5 -208t-208 -139.5t-251.5 -52q-175 0 -322.5 89t-232 239t-84.5 323z M1008 4050q0 -144 108.5 -256.5t254.5 -112.5q149 0 259 110.5t110 258.5q0 145 -103 257t-248 112q-154 0 -267.5 -108.5t-113.5 -260.5z" />
<glyph unicode="&#xe6;" horiz-adv-x="4452" d="M258 756q0 141 46.5 292t130.5 248q34 39 370.5 180.5t619 250t456.5 172.5v387q0 213 -129.5 324t-344.5 111q-211 0 -438 -129.5t-390 -311.5l-174 288q185 231 473 382.5t571 151.5q108 0 201 -12t184 -41.5t166 -75.5t141.5 -117.5t114.5 -164.5q174 197 400 304 t485 107q147 0 284.5 -45t249 -124.5t205 -188t158.5 -234t103 -265t44 -280.5l12 -312h-1857v-117q0 -103 11 -213.5t37 -235t65.5 -239t101 -220t137.5 -183t182 -123.5t228 -46q201 0 405 44.5t357 135.5l141 -303q-194 -119 -461.5 -182.5t-519.5 -63.5 q-153 0 -302.5 50t-274 137.5t-227 206.5t-168.5 257l-510 -435q-129 -109 -249 -162.5t-273 -53.5q-191 0 -338.5 63t-239 177.5t-138 268t-46.5 340.5zM720 744q0 -85 24.5 -164.5t70 -143.5t118.5 -103t162 -39q103 0 223.5 55t211.5 131l423 357q-47 152 -66 315.5 t-24 371.5q-99 -35 -229.5 -83.5t-318 -122t-324.5 -141t-163 -103.5q-47 -68 -77.5 -158.5t-30.5 -171.5zM2397 2004h1308q0 104 -25.5 209t-77.5 200.5t-123.5 169.5t-171 118t-211.5 44t-213.5 -45t-178.5 -118t-140 -171t-103.5 -199.5t-63.5 -207.5z" />
<glyph unicode="&#xe7;" horiz-adv-x="2529" d="M300 1476q0 712 303 1116q167 224 407 367t496 143q202 0 421 -83.5t365 -222.5l-210 -276q-110 92 -269 149.5t-301 57.5q-105 0 -201 -41t-169 -108.5t-134.5 -157.5t-102.5 -183t-68 -191q-69 -237 -69 -510q0 -99 11.5 -209t38.5 -233.5t67 -239t101.5 -221.5 t136 -184.5t176.5 -125.5t219 -47q155 0 345 79.5t360 190.5l156 -288q-102 -93 -249.5 -172t-287.5 -122q192 -180 192 -351q0 -84 -42.5 -173t-109.5 -164t-152 -143.5t-168.5 -118t-160.5 -82.5l-234 189q189 104 274 165q224 160 224 297q0 81 -56 129t-142 48 q-28 0 -57 -2.5t-65.5 -10t-55 -11.5t-65 -15.5t-57.5 -14.5v252q-184 65 -332.5 184.5t-246.5 268.5t-164 329.5t-95 362.5t-29 373z" />
<glyph unicode="&#xe8;" horiz-adv-x="2892" d="M300 1584q0 185 39.5 369t113 352.5t185.5 314t250.5 253t316 168.5t373.5 61q177 0 338 -64t283 -174t214.5 -255t145 -309.5t63.5 -334.5q3 -53 7.5 -156t7.5 -156h-1857v-117q0 -97 11 -205.5t37 -232t64 -239t97.5 -222.5t133 -186.5t174 -127t215.5 -47.5 q83 0 201.5 39.5t240.5 101.5t224 122t186 118l150 -294q-215 -185 -509.5 -320.5t-543.5 -135.5q-183 0 -340.5 55.5t-274.5 150.5t-211 227.5t-155.5 281t-102.5 315.5t-59 327t-18 320zM837 2004h1308q0 104 -25.5 208t-77.5 197.5t-123.5 166t-171 115t-211.5 42.5 t-213.5 -43.5t-178.5 -115t-139.5 -167.5t-103.5 -197t-64 -206zM879 4233l381 387q324 -446 945 -897l-195 -276q-724 387 -1131 786z" />
<glyph unicode="&#xe9;" horiz-adv-x="2892" d="M300 1584q0 185 39.5 369t113 352.5t185.5 314t250.5 253t316 168.5t373.5 61q177 0 338 -64t283 -174t214.5 -255t145 -309.5t63.5 -334.5q3 -53 7.5 -156t7.5 -156h-1857v-117q0 -97 11 -205.5t37 -232t64 -239t97.5 -222.5t133 -186.5t174 -127t215.5 -47.5 q83 0 201.5 39.5t240.5 101.5t224 122t186 118l150 -294q-215 -185 -509.5 -320.5t-543.5 -135.5q-183 0 -340.5 55.5t-274.5 150.5t-211 227.5t-155.5 281t-102.5 315.5t-59 327t-18 320zM837 2004h1308q0 104 -25.5 208t-77.5 197.5t-123.5 166t-171 115t-211.5 42.5 t-213.5 -43.5t-178.5 -115t-139.5 -167.5t-103.5 -197t-64 -206zM939 3723q174 126 335.5 264.5t268 247t188 198.5t119.5 139l37 48l381 -387q-17 -17 -49.5 -47t-143 -121t-232.5 -180.5t-314 -211t-392 -226.5z" />
<glyph unicode="&#xea;" horiz-adv-x="2892" d="M300 1584q0 185 39.5 369t113 352.5t185.5 314t250.5 253t316 168.5t373.5 61q177 0 338 -64t283 -174t214.5 -255t145 -309.5t63.5 -334.5q3 -53 7.5 -156t7.5 -156h-1857v-117q0 -97 11 -205.5t37 -232t64 -239t97.5 -222.5t133 -186.5t174 -127t215.5 -47.5 q83 0 201.5 39.5t240.5 101.5t224 122t186 118l150 -294q-215 -185 -509.5 -320.5t-543.5 -135.5q-183 0 -340.5 55.5t-274.5 150.5t-211 227.5t-155.5 281t-102.5 315.5t-59 327t-18 320zM597 3717q492 339 939 903q189 -244 433.5 -475.5t505.5 -421.5l-195 -282 q-199 106 -378 259.5t-366 355.5q-188 -203 -369 -358.5t-375 -256.5zM837 2004h1308q0 104 -25.5 208t-77.5 197.5t-123.5 166t-171 115t-211.5 42.5t-213.5 -43.5t-178.5 -115t-139.5 -167.5t-103.5 -197t-64 -206z" />
<glyph unicode="&#xeb;" horiz-adv-x="2892" d="M300 1584q0 185 39.5 369t113 352.5t185.5 314t250.5 253t316 168.5t373.5 61q177 0 338 -64t283 -174t214.5 -255t145 -309.5t63.5 -334.5q3 -53 7.5 -156t7.5 -156h-1857v-117q0 -97 11 -205.5t37 -232t64 -239t97.5 -222.5t133 -186.5t174 -127t215.5 -47.5 q83 0 201.5 39.5t240.5 101.5t224 122t186 118l150 -294q-215 -185 -509.5 -320.5t-543.5 -135.5q-183 0 -340.5 55.5t-274.5 150.5t-211 227.5t-155.5 281t-102.5 315.5t-59 327t-18 320zM810 3828q0 87 49 171.5t131 138t171 53.5q103 0 177.5 -71t74.5 -175 q0 -89 -55 -169.5t-140.5 -128t-173.5 -47.5q-98 0 -166 64t-68 164zM837 2004h1308q0 104 -25.5 208t-77.5 197.5t-123.5 166t-171 115t-211.5 42.5t-213.5 -43.5t-178.5 -115t-139.5 -167.5t-103.5 -197t-64 -206zM1758 3828q0 87 48 171.5t129.5 138t170.5 53.5 q103 0 177.5 -71t74.5 -175q0 -89 -54.5 -169.5t-139 -128t-172.5 -47.5q-98 0 -166 64t-68 164z" />
<glyph unicode="&#xec;" horiz-adv-x="1461" d="M69 4233l381 387q324 -446 945 -897l-198 -276q-718 384 -1128 786zM504 0v3012h453v-3012h-453z" />
<glyph unicode="&#xed;" horiz-adv-x="1461" d="M123 3723q174 126 335 264.5t267 246.5t187.5 198.5t118.5 139.5l37 48l381 -387q-17 -17 -49.5 -47t-143 -121t-232.5 -180.5t-314 -211t-392 -226.5zM504 0v3012h453v-3012h-453z" />
<glyph unicode="&#xee;" horiz-adv-x="1461" d="M-228 3717q498 343 942 903q189 -244 433.5 -475.5t505.5 -421.5l-198 -282q-198 105 -375 257.5t-366 357.5q-188 -203 -369 -358.5t-375 -256.5zM504 0v3012h453v-3012h-453z" />
<glyph unicode="&#xef;" horiz-adv-x="1461" d="M-48 3828q0 88 47 172t128.5 137.5t172.5 53.5q98 0 175 -73t77 -173q0 -89 -55 -169.5t-140.5 -128t-173.5 -47.5q-98 0 -164.5 64t-66.5 164zM504 0v3012h453v-3012h-453zM897 3828q0 88 47.5 172t130 137.5t173.5 53.5q98 0 175 -73t77 -173q0 -89 -55 -169.5 t-140.5 -128t-173.5 -47.5q-98 0 -166 64t-68 164z" />
<glyph unicode="&#xf1;" horiz-adv-x="3186" d="M498 3945q228 180 402 268.5t336 88.5q95 0 189.5 -28t172.5 -68t153 -80.5t159.5 -68.5t165.5 -28q58 0 103.5 3.5t91 17.5t73 24t77.5 40.5t76 48t95 64.5l192 -234q-217 -204 -371.5 -273t-378.5 -69q-71 0 -151 28t-155.5 67.5t-153.5 79t-172 67.5t-184 28 q-44 0 -94.5 -12t-87 -25t-97.5 -45.5t-85.5 -47t-94.5 -58t-84 -52.5zM504 0v3012h468v-222q169 119 455.5 215.5t519.5 96.5q134 0 242.5 -21.5t186 -59t135 -96t93 -124t56.5 -152t29 -172t8 -191.5v-2286h-468v2286q0 87 -8 149.5t-30.5 119.5t-62.5 91.5t-104.5 54.5 t-154.5 20q-121 0 -262 -31t-262 -79t-220 -101.5t-153 -100.5v-2409h-468z" />
<glyph unicode="&#xf2;" horiz-adv-x="2997" d="M300 1500q0 154 22.5 311.5t71 315.5t118 301t169 266.5t219 214t273.5 142t327 51.5t327 -51.5t273 -142t218.5 -214t168.5 -266.5t117 -301t70.5 -315.5t22.5 -311.5q0 -134 -18 -271.5t-53 -276t-91 -268t-128 -246.5t-167.5 -214t-205.5 -167.5t-247 -110t-287 -39.5 t-287 39.5t-247.5 110t-206 167.5t-168 214t-128.5 246.5t-91.5 268t-53.5 276t-18 271.5zM768 1500q0 -101 13.5 -213t42.5 -231.5t71 -231.5t103 -212t133.5 -174.5t167.5 -118t201 -43.5t201 43.5t167 118t132.5 174.5t102 212t70.5 231.5t42.5 231.5t13.5 213 q0 119 -19 252t-56 272.5t-98.5 265.5t-139.5 225.5t-185.5 158.5t-230.5 59q-106 0 -201 -44t-167.5 -119.5t-133.5 -176.5t-103 -213.5t-71 -233t-42.5 -233t-13.5 -213.5zM843 4233l381 387q324 -446 945 -897l-198 -276q-718 384 -1128 786z" />
<glyph unicode="&#xf3;" horiz-adv-x="2997" d="M300 1500q0 154 22.5 311.5t71 315.5t118 301t169 266.5t219 214t273.5 142t327 51.5t327 -51.5t273 -142t218.5 -214t168.5 -266.5t117 -301t70.5 -315.5t22.5 -311.5q0 -134 -18 -271.5t-53 -276t-91 -268t-128 -246.5t-167.5 -214t-205.5 -167.5t-247 -110t-287 -39.5 t-287 39.5t-247.5 110t-206 167.5t-168 214t-128.5 246.5t-91.5 268t-53.5 276t-18 271.5zM768 1500q0 -101 13.5 -213t42.5 -231.5t71 -231.5t103 -212t133.5 -174.5t167.5 -118t201 -43.5t201 43.5t167 118t132.5 174.5t102 212t70.5 231.5t42.5 231.5t13.5 213 q0 119 -19 252t-56 272.5t-98.5 265.5t-139.5 225.5t-185.5 158.5t-230.5 59q-106 0 -201 -44t-167.5 -119.5t-133.5 -176.5t-103 -213.5t-71 -233t-42.5 -233t-13.5 -213.5zM879 3723q174 126 335 264.5t267 246.5t187.5 198.5t118.5 139.5l37 48l381 -387 q-17 -17 -49.5 -47t-143 -121t-232.5 -180.5t-314 -211t-392 -226.5z" />
<glyph unicode="&#xf4;" horiz-adv-x="2997" d="M300 1500q0 154 22.5 311.5t71 315.5t118 301t169 266.5t219 214t273.5 142t327 51.5t327 -51.5t273 -142t218.5 -214t168.5 -266.5t117 -301t70.5 -315.5t22.5 -311.5q0 -134 -18 -271.5t-53 -276t-91 -268t-128 -246.5t-167.5 -214t-205.5 -167.5t-247 -110t-287 -39.5 t-287 39.5t-247.5 110t-206 167.5t-168 214t-128.5 246.5t-91.5 268t-53.5 276t-18 271.5zM579 3717q492 339 939 903q189 -244 433.5 -475.5t505.5 -421.5l-195 -282q-199 106 -378 259.5t-366 355.5q-188 -203 -369 -358.5t-375 -256.5zM768 1500q0 -101 13.5 -213 t42.5 -231.5t71 -231.5t103 -212t133.5 -174.5t167.5 -118t201 -43.5t201 43.5t167 118t132.5 174.5t102 212t70.5 231.5t42.5 231.5t13.5 213q0 119 -19 252t-56 272.5t-98.5 265.5t-139.5 225.5t-185.5 158.5t-230.5 59q-106 0 -201 -44t-167.5 -119.5t-133.5 -176.5 t-103 -213.5t-71 -233t-42.5 -233t-13.5 -213.5z" />
<glyph unicode="&#xf5;" horiz-adv-x="2997" d="M300 1500q0 154 22.5 311.5t71 315.5t118 301t169 266.5t219 214t273.5 142t327 51.5t327 -51.5t273 -142t218.5 -214t168.5 -266.5t117 -301t70.5 -315.5t22.5 -311.5q0 -134 -18 -271.5t-53 -276t-91 -268t-128 -246.5t-167.5 -214t-205.5 -167.5t-247 -110t-287 -39.5 t-287 39.5t-247.5 110t-206 167.5t-168 214t-128.5 246.5t-91.5 268t-53.5 276t-18 271.5zM351 3945q229 181 401.5 269t333.5 88q95 0 190 -28t173 -68t153.5 -80.5t160.5 -68.5t166 -28q58 0 103.5 3.5t91 17.5t73 24t77.5 40.5t76 48t95 64.5l192 -234 q-217 -204 -371.5 -273t-378.5 -69q-71 0 -151.5 28t-156 67.5t-154.5 79t-173 67.5t-184 28q-44 0 -94 -12t-87.5 -25.5t-95.5 -44.5t-85.5 -47.5t-93 -57.5t-84.5 -53zM768 1500q0 -101 13.5 -213t42.5 -231.5t71 -231.5t103 -212t133.5 -174.5t167.5 -118t201 -43.5 t201 43.5t167 118t132.5 174.5t102 212t70.5 231.5t42.5 231.5t13.5 213q0 119 -19 252t-56 272.5t-98.5 265.5t-139.5 225.5t-185.5 158.5t-230.5 59q-106 0 -201 -44t-167.5 -119.5t-133.5 -176.5t-103 -213.5t-71 -233t-42.5 -233t-13.5 -213.5z" />
<glyph unicode="&#xf6;" horiz-adv-x="2997" d="M300 1500q0 154 22.5 311.5t71 315.5t118 301t169 266.5t219 214t273.5 142t327 51.5t327 -51.5t273 -142t218.5 -214t168.5 -266.5t117 -301t70.5 -315.5t22.5 -311.5q0 -134 -18 -271.5t-53 -276t-91 -268t-128 -246.5t-167.5 -214t-205.5 -167.5t-247 -110t-287 -39.5 t-287 39.5t-247.5 110t-206 167.5t-168 214t-128.5 246.5t-91.5 268t-53.5 276t-18 271.5zM750 3828q0 87 49 171.5t131 138t171 53.5q103 0 177.5 -71t74.5 -175q0 -89 -55 -169.5t-140.5 -128t-173.5 -47.5q-98 0 -166 64t-68 164zM768 1500q0 -101 13.5 -213t42.5 -231.5 t71 -231.5t103 -212t133.5 -174.5t167.5 -118t201 -43.5t201 43.5t167 118t132.5 174.5t102 212t70.5 231.5t42.5 231.5t13.5 213q0 119 -19 252t-56 272.5t-98.5 265.5t-139.5 225.5t-185.5 158.5t-230.5 59q-106 0 -201 -44t-167.5 -119.5t-133.5 -176.5t-103 -213.5 t-71 -233t-42.5 -233t-13.5 -213.5zM1695 3828q0 87 49 171.5t131 138t171 53.5q103 0 177.5 -71t74.5 -175q0 -89 -55 -169.5t-140.5 -128t-173.5 -47.5q-98 0 -166 64t-68 164z" />
<glyph unicode="&#xf7;" horiz-adv-x="3003" d="M333 1353v366h2334v-366h-2334zM1143 627q0 102 55.5 189t146 136.5t191.5 49.5q145 0 251 -99.5t106 -245.5q0 -151 -119 -263t-274 -112q-145 0 -251 99.5t-106 245.5zM1143 2451q0 102 55.5 189t146 136.5t191.5 49.5q145 0 251 -99.5t106 -245.5q0 -151 -119 -263 t-274 -112q-145 0 -251 99.5t-106 245.5z" />
<glyph unicode="&#xf8;" horiz-adv-x="2997" d="M300 1500q0 154 23 312t71.5 315.5t118.5 300.5t170 266.5t219.5 214t273 142t324.5 51.5q142 0 282 -36l147 510h306l-183 -639q165 -109 292 -276t202.5 -361t113 -396t37.5 -404q0 -134 -18 -271.5t-53 -276t-91 -268t-128 -246.5t-167.5 -214t-205.5 -167.5 t-247 -110t-287 -39.5q-154 0 -303 45l-177 -633h-306l213 762q-160 109 -283 274.5t-196.5 356t-110.5 389.5t-37 399zM768 1500q0 -136 12.5 -265t41.5 -267.5t85.5 -264t136.5 -217.5l639 2223q-80 24 -183 24q-125 0 -230 -44.5t-179 -118.5t-132 -177.5t-93 -213 t-58 -233.5t-31.5 -231.5t-8.5 -214.5zM1302 300q100 -30 198 -30q125 0 230 44t178.5 117.5t131 176t92.5 211.5t57.5 233t31 232t8.5 216q0 138 -13.5 270.5t-44.5 274t-89.5 270t-140.5 223.5z" />
<glyph unicode="&#xf9;" horiz-adv-x="3174" d="M492 726v2286h465v-2286q0 -62 3 -108t12 -94t24.5 -81.5t41.5 -64.5t62 -49.5t86.5 -29.5t115.5 -11q203 0 482.5 107t432.5 244v2373h468v-2550q0 -29 0.5 -45t2.5 -44.5t7 -45.5t14.5 -39.5t22.5 -35.5t34 -23.5t48 -12.5l-153 -309q-167 0 -288.5 94.5t-143.5 256.5 q-187 -160 -454 -255.5t-515 -95.5q-212 0 -360 51t-238 156.5t-130 254.5t-40 357zM939 4233l381 387q320 -442 948 -897l-198 -276q-724 387 -1131 786z" />
<glyph unicode="&#xfa;" horiz-adv-x="3174" d="M492 726v2286h465v-2286q0 -62 3 -108t12 -94t24.5 -81.5t41.5 -64.5t62 -49.5t86.5 -29.5t115.5 -11q203 0 482.5 107t432.5 244v2373h468v-2550q0 -29 0.5 -45t2.5 -44.5t7 -45.5t14.5 -39.5t22.5 -35.5t34 -23.5t48 -12.5l-153 -309q-167 0 -288.5 94.5t-143.5 256.5 q-187 -160 -454 -255.5t-515 -95.5q-212 0 -360 51t-238 156.5t-130 254.5t-40 357zM939 3723q174 126 335.5 264.5t268 247t188 198.5t119.5 139l37 48l381 -387q-17 -17 -49.5 -47t-143 -121t-232.5 -180.5t-314 -211t-392 -226.5z" />
<glyph unicode="&#xfb;" horiz-adv-x="3174" d="M492 726v2286h465v-2286q0 -62 3 -108t12 -94t24.5 -81.5t41.5 -64.5t62 -49.5t86.5 -29.5t115.5 -11q203 0 482.5 107t432.5 244v2373h468v-2550q0 -29 0.5 -45t2.5 -44.5t7 -45.5t14.5 -39.5t22.5 -35.5t34 -23.5t48 -12.5l-153 -309q-167 0 -288.5 94.5t-143.5 256.5 q-187 -160 -454 -255.5t-515 -95.5q-212 0 -360 51t-238 156.5t-130 254.5t-40 357zM621 3717q492 339 939 903q188 -243 433.5 -474.5t508.5 -422.5l-198 -282q-199 106 -378 259.5t-366 355.5q-188 -203 -369 -358.5t-375 -256.5z" />
<glyph unicode="&#xfc;" horiz-adv-x="3174" d="M492 726v2286h465v-2286q0 -62 3 -108t12 -94t24.5 -81.5t41.5 -64.5t62 -49.5t86.5 -29.5t115.5 -11q203 0 482.5 107t432.5 244v2373h468v-2550q0 -29 0.5 -45t2.5 -44.5t7 -45.5t14.5 -39.5t22.5 -35.5t34 -23.5t48 -12.5l-153 -309q-167 0 -288.5 94.5t-143.5 256.5 q-187 -160 -454 -255.5t-515 -95.5q-212 0 -360 51t-238 156.5t-130 254.5t-40 357zM810 3828q0 87 49 171.5t131 138t171 53.5q103 0 177.5 -71t74.5 -175q0 -89 -55 -169.5t-140.5 -128t-173.5 -47.5q-98 0 -166 64t-68 164zM1758 3828q0 87 48 171.5t129.5 138 t170.5 53.5q103 0 177.5 -71t74.5 -175q0 -89 -54.5 -169.5t-139 -128t-172.5 -47.5q-98 0 -166 64t-68 164z" />
<glyph unicode="&#xff;" horiz-adv-x="2787" d="M69 3012h489l702 -1974q117 -336 165 -615q460 1144 825 2589h465q-63 -245 -129.5 -487t-163.5 -565.5t-194.5 -617t-219.5 -614.5t-242 -586t-258.5 -504t-271.5 -394q-131 -153 -306.5 -240.5t-413.5 -146.5l-99 357q209 46 456 258q21 18 41.5 39t42 50t37 49t39 59 t34 55t35.5 62t30 55t31.5 59.5t27.5 51.5zM651 3828q0 87 49 171.5t131 138t171 53.5q103 0 177.5 -71t74.5 -175q0 -89 -55 -169.5t-140.5 -128t-173.5 -47.5q-98 0 -166 64t-68 164zM1596 3828q0 87 49 171.5t131 138t171 53.5q103 0 177.5 -71t74.5 -175 q0 -89 -55 -169.5t-140.5 -128t-173.5 -47.5q-98 0 -166 64t-68 164z" />
<glyph unicode="&#x152;" horiz-adv-x="3918" d="M339 1959q0 170 20.5 348t68 366.5t116.5 360.5t173.5 325.5t232.5 266t299.5 178.5t367.5 66h1995v-411h-1497v-1230h1146v-423h-1146v-1383h1560v-423h-2058q-202 0 -376.5 68t-302.5 183.5t-231.5 274.5t-171 334.5t-112.5 369.5t-64.5 374.5t-19.5 354.5zM810 1899 q0 -95 4.5 -190t17 -211t32 -223.5t52.5 -220.5t76.5 -208.5t105.5 -182t136.5 -146.5t174 -95t214.5 -35v3090q-117 0 -217.5 -37.5t-175.5 -101t-137.5 -155t-105 -192t-75 -220t-51.5 -231t-31 -232.5t-16 -217t-4 -192z" />
<glyph unicode="&#x153;" horiz-adv-x="4674" d="M300 1500q0 154 23 312t71.5 315.5t118.5 300.5t170 266.5t219.5 214t273 142t324.5 51.5q298 0 517.5 -128t373.5 -388q174 243 424.5 379.5t544.5 136.5q177 0 338.5 -64t284 -174t215.5 -254.5t145 -310t61 -334.5q3 -52 7.5 -156t7.5 -156h-1857v-117 q0 -103 11 -213.5t37 -235t65.5 -239t101 -220t137.5 -183t182 -123.5t228 -46q193 0 403 46.5t359 133.5l141 -303q-193 -118 -464 -182t-520 -64q-256 0 -483.5 130.5t-380.5 349.5q-162 -227 -386 -353.5t-493 -126.5q-150 0 -287 39.5t-247.5 110t-206 167.5t-168 214 t-128.5 246.5t-91.5 268t-53.5 276t-18 271.5zM768 1500q0 -108 8.5 -216t31.5 -232t58 -233t93 -211.5t132 -176t179 -117.5t230 -44q109 0 203 34.5t163.5 91.5t127 139.5t96 170.5t67.5 191q-75 317 -75 687q0 226 81 504q-30 104 -68 193t-96 174.5t-127.5 145t-165 96 t-206.5 36.5q-125 0 -230 -44.5t-179 -118.5t-132 -177.5t-93 -213t-58 -233.5t-31.5 -231.5t-8.5 -214.5zM2616 2004h1311q0 106 -25.5 211.5t-77.5 201t-123.5 168.5t-171 116.5t-211.5 43.5t-214 -45.5t-179 -119.5t-140.5 -171.5t-104.5 -199t-64 -205.5z" />
<glyph unicode="&#x178;" horiz-adv-x="2892" d="M81 3870h522l858 -1929l867 1929h492l-1131 -2451v-1419h-486v1419zM732 4626q0 87 48 171.5t129.5 138t170.5 53.5q103 0 177.5 -71t74.5 -175q0 -89 -54.5 -169.5t-139 -128t-172.5 -47.5q-98 0 -166 64t-68 164zM1677 4626q0 87 49 171.5t131 138t171 53.5 q103 0 177.5 -71t74.5 -175q0 -89 -55 -169.5t-140.5 -128t-173.5 -47.5q-98 0 -166 64t-68 164z" />
<glyph unicode="&#x2c6;" horiz-adv-x="2469" d="M369 3717q492 339 939 903q188 -243 433.5 -474.5t508.5 -422.5l-198 -282q-199 106 -378 259.5t-366 355.5q-188 -203 -369 -358.5t-375 -256.5z" />
<glyph unicode="&#x2dc;" horiz-adv-x="2334" d="M6 3945q228 180 402 268.5t336 88.5q95 0 189.5 -28t172.5 -68t153 -80.5t159.5 -68.5t165.5 -28q58 0 103.5 3.5t91 17.5t73 24t77.5 40.5t76 48t95 64.5l192 -234q-217 -204 -371.5 -273t-378.5 -69q-71 0 -151 28t-155.5 67.5t-153.5 79t-172 67.5t-184 28 q-44 0 -94.5 -12t-87 -25t-97.5 -45.5t-85.5 -47t-94.5 -58t-84 -52.5z" />
<glyph unicode="&#x2000;" horiz-adv-x="2734" />
<glyph unicode="&#x2001;" horiz-adv-x="5469" />
<glyph unicode="&#x2002;" horiz-adv-x="2734" />
<glyph unicode="&#x2003;" horiz-adv-x="5469" />
<glyph unicode="&#x2004;" horiz-adv-x="1823" />
<glyph unicode="&#x2005;" horiz-adv-x="1367" />
<glyph unicode="&#x2006;" horiz-adv-x="911" />
<glyph unicode="&#x2007;" horiz-adv-x="911" />
<glyph unicode="&#x2008;" horiz-adv-x="683" />
<glyph unicode="&#x2009;" horiz-adv-x="1093" />
<glyph unicode="&#x200a;" horiz-adv-x="303" />
<glyph unicode="&#x2010;" horiz-adv-x="1854" d="M333 1383v369h1173v-369h-1173z" />
<glyph unicode="&#x2011;" horiz-adv-x="1854" d="M333 1383v369h1173v-369h-1173z" />
<glyph unicode="&#x2012;" horiz-adv-x="1854" d="M333 1383v369h1173v-369h-1173z" />
<glyph unicode="&#x2013;" horiz-adv-x="2199" d="M0 1383v369h2199v-369h-2199z" />
<glyph unicode="&#x2014;" horiz-adv-x="3735" d="M0 1389v369h3735v-369h-3735z" />
<glyph unicode="&#x2018;" horiz-adv-x="1638" d="M282 2931q10 22 30.5 61.5t93 164t156.5 250.5t222.5 307t289.5 348l279 -192q-298 -425 -369 -717q-33 -136 -33 -252q0 -41 3.5 -78t7.5 -53l4 -16q-20 -12 -52 -29.5t-109.5 -46.5t-129.5 -29q-51 0 -110.5 29t-107.5 70.5t-89 83t-64 70.5z" />
<glyph unicode="&#x2019;" horiz-adv-x="1656" d="M294 2745q297 423 369 720q30 124 30 252q0 41 -3 78t-6 53l-3 16q20 12 52 29.5t109.5 46.5t129.5 29q51 0 110.5 -29t107.5 -70.5t89 -83t63 -70.5l23 -29q-10 -22 -30.5 -61.5t-94 -164t-157.5 -250.5t-223 -307t-290 -348z" />
<glyph unicode="&#x201a;" horiz-adv-x="1584" d="M177 -669q298 425 369 717q33 136 33 252q0 41 -3.5 78.5t-7.5 54.5l-4 17q20 11 52 28t109.5 45.5t129.5 28.5q51 0 110.5 -29t107.5 -70.5t89 -83t64 -70.5l22 -29q-10 -22 -30.5 -61.5t-93 -164t-156.5 -250.5t-222.5 -307t-289.5 -348z" />
<glyph unicode="&#x201c;" horiz-adv-x="2739" d="M288 2931q10 22 30.5 61.5t93 164t156.5 250.5t222.5 307t289.5 348l279 -192q-298 -425 -369 -717q-33 -136 -33 -252q0 -41 3.5 -78t7.5 -53l4 -16q-20 -12 -52 -29.5t-109.5 -46.5t-129.5 -29q-51 0 -110.5 29t-107.5 70.5t-89 83t-64 70.5zM1377 2931 q10 22 30.5 61.5t93 164t156.5 250.5t222.5 307t289.5 348l276 -192q-298 -425 -369 -717q-30 -124 -30 -252q0 -41 3 -78t6 -53l3 -16q-19 -12 -50.5 -29.5t-108.5 -46.5t-129 -29q-51 0 -110.5 29t-107.5 70.5t-89 83t-63 70.5z" />
<glyph unicode="&#x201d;" horiz-adv-x="2739" d="M288 2745q297 423 369 720q30 124 30 252q0 41 -3 78t-6 53l-3 16q20 12 52 29.5t109.5 46.5t129.5 29q51 0 110.5 -29t107.5 -70.5t89 -83t63 -70.5l23 -29q-10 -22 -30.5 -61.5t-94 -164t-157.5 -250.5t-223 -307t-290 -348zM1377 2745q297 423 369 720q30 124 30 252 q0 41 -3 78t-6 53l-3 16q19 12 50.5 29.5t108.5 46.5t129 29q51 0 110.5 -29t107.5 -70.5t89 -83t63 -70.5l23 -29q-10 -22 -30.5 -61.5t-93 -164t-156.5 -250.5t-222.5 -307t-289.5 -348z" />
<glyph unicode="&#x201e;" horiz-adv-x="2664" d="M177 -669q298 425 369 717q33 136 33 252q0 41 -3.5 78.5t-7.5 54.5l-4 17q20 11 52 28t109.5 45.5t129.5 28.5q51 0 110.5 -29t107.5 -70.5t89 -83t64 -70.5l22 -29q-10 -22 -30.5 -61.5t-93 -164t-156.5 -250.5t-222.5 -307t-289.5 -348zM1266 -669q298 425 369 717 q30 124 30 252q0 41 -3 78.5t-6 54.5l-3 17q19 11 50.5 28t108.5 45.5t129 28.5q51 0 110.5 -29t107.5 -70.5t89 -83t64 -70.5l22 -29q-10 -22 -30.5 -61.5t-93 -164t-156.5 -250.5t-222.5 -307t-289.5 -348z" />
<glyph unicode="&#x2022;" horiz-adv-x="2604" d="M240 1935q0 216 83.5 411.5t224.5 336.5t336.5 224.5t411.5 83.5t412.5 -83.5t338.5 -224.5t226.5 -337t84.5 -411t-84.5 -411t-226.5 -337t-338.5 -224.5t-412.5 -83.5t-411.5 83.5t-336.5 224.5t-224.5 336.5t-83.5 411.5z" />
<glyph unicode="&#x2026;" horiz-adv-x="3708" d="M429 252q0 102 55.5 189t146 136.5t191.5 49.5q145 0 251 -99.5t106 -245.5q0 -151 -119 -263t-274 -112q-145 0 -251 99.5t-106 245.5zM1488 252q0 102 55.5 189t146 136.5t191.5 49.5q144 0 249 -99.5t105 -245.5q0 -151 -119 -263t-274 -112q-144 0 -249 99.5 t-105 245.5zM2532 252q0 102 55.5 189t146 136.5t191.5 49.5q145 0 251 -99.5t106 -245.5q0 -151 -119 -263t-274 -112q-145 0 -251 99.5t-106 245.5z" />
<glyph unicode="&#x202f;" horiz-adv-x="1093" />
<glyph unicode="&#x2039;" horiz-adv-x="1842" d="M204 1536l1134 1155l291 -234l-915 -921l927 -921l-288 -234z" />
<glyph unicode="&#x203a;" horiz-adv-x="1842" d="M204 615l288 -234l1149 1155l-1137 1155l-288 -234l915 -921z" />
<glyph unicode="&#x205f;" horiz-adv-x="1367" />
<glyph unicode="&#x2122;" horiz-adv-x="4926" d="M411 3993v270h1494v-270h-597v-2169h-300v2169h-597zM2193 1824v2439h411l720 -2058l714 2058h411v-2439h-309v1659q0 57 4.5 140.5t9.5 138.5l4 54l-699 -1992h-270l-702 1998q21 -204 21 -333v-1665h-315z" />
<glyph unicode="&#xe000;" horiz-adv-x="3009" d="M0 0v3012h3012v-3012h-3012z" />
<glyph unicode="&#xfb01;" horiz-adv-x="3207" d="M141 2709v303h405v336q0 210 66 379t178.5 281.5t269 188t332 108.5t372.5 33q66 0 146.5 -5t186.5 -19t206 -35.5t198.5 -58.5t172 -83t119 -113.5t45.5 -147.5q0 -149 -108 -242.5t-261 -93.5q-76 0 -128.5 18t-80.5 48t-46 69t-32.5 82.5t-33 87t-54 82.5t-88.5 69 t-144.5 48t-214.5 18q-134 0 -242.5 -46t-180 -123t-120 -182t-69.5 -218.5t-21 -237.5v-243h597v-357h-597v-2655h-468v2655zM2280 0v3012h453v-3012h-453z" />
<glyph unicode="&#xfb02;" horiz-adv-x="3207" d="M141 2709v303h405v336q0 184 54 341t151 272.5t230 196.5t292.5 121.5t337.5 40.5q129 0 245.5 -20.5t233.5 -75t196 -138.5v171h453v-3048q0 -584 186 -1209h-486q-153 409 -153 1209v2484q-215 330 -603 330q-108 0 -197 -19t-154.5 -47t-116.5 -81.5t-84 -100.5 t-56 -128t-35 -139.5t-18 -159t-7 -162.5t-1 -174h597v-357h-597v-2655h-468v2655z" />
</font>
</defs>
</svg>
